<?xml version="1.0" encoding="utf-8"?>
<!-- Generator: Adobe Illustrator 26.0.1, SVG Export Plug-In . SVG Version: 6.00 Build 0)  -->
<svg version="1.1" xmlns="http://www.w3.org/2000/svg" xmlns:xlink="http://www.w3.org/1999/xlink" x="0px" y="0px" width="171.5px"
	 height="175px" viewBox="0 0 171.5 175" enable-background="new 0 0 171.5 175" xml:space="preserve">
<g id="Hintergrund">
	<rect fill="#FFFFFF" width="171.5" height="175"/>
</g>
<g id="Foerderzusatz">
	<g>
		<path d="M28.585,22.346c-0.221-0.147-0.704-0.326-1.281-0.326c-1.28,0-2.53,0.84-2.53,3.013c0,2.1,0.977,3.139,2.362,3.139
			c0.504,0,0.903-0.095,1.208-0.21v-2.089l-0.641-0.147c-0.105-0.021-0.147-0.053-0.147-0.115c0-0.095,0.073-0.221,0.116-0.315
			h2.393c0,0,0.011,0.063,0.011,0.116c0,0.168-0.095,0.294-0.356,0.368l-0.242,0.062v2.194c-0.283,0.252-1.06,0.819-2.604,0.819
			c-1.848,0-3.296-1.144-3.296-3.695c0-2.729,2.026-3.8,3.769-3.8c1.113,0,1.67,0.315,2.016,0.473
			c0.031,0.314,0.063,0.966,0.063,1.05c0,0.325-0.095,0.535-0.368,0.535c-0.084,0-0.168-0.021-0.241-0.042L28.585,22.346z"/>
		<path d="M31.861,26.209c0.011,1.302,0.631,1.911,1.533,1.911c0.672,0,1.05-0.263,1.312-0.483c0.104,0.084,0.157,0.262,0.157,0.357
			c0,0.263-0.692,0.861-1.858,0.861c-1.291,0-2.257-0.735-2.257-2.562s1.103-2.761,2.299-2.761c1.187,0,1.785,0.725,1.785,1.774
			c0,0.273-0.053,0.641-0.126,0.903H31.861z M33.699,25.653c0.021-0.095,0.053-0.273,0.053-0.452c0-0.578-0.211-1.071-0.819-1.071
			c-0.619,0-0.987,0.493-1.061,1.522H33.699z"/>
		<path d="M38.676,24.235h-1.281v3.926l0.714,0.137c0.104,0.021,0.147,0.052,0.147,0.136c0,0.105-0.074,0.262-0.105,0.294h-2.498
			c0,0-0.011-0.063-0.011-0.094c0-0.189,0.126-0.273,0.325-0.347l0.357-0.126v-3.926h-0.777c0,0-0.011-0.063-0.011-0.094
			c0-0.2,0.126-0.305,0.325-0.357l0.463-0.126v-0.104c0-1.69,1.028-2.509,1.932-2.509c0.524,0,0.734,0.231,0.734,0.556
			c0,0.263-0.157,0.41-0.314,0.494c-0.095-0.105-0.368-0.304-0.693-0.304c-0.451,0-0.609,0.252-0.609,0.871
			c0,0.325,0.021,0.997,0.021,0.997h1.396L38.676,24.235z"/>
		<path d="M44.082,26.146c0,1.816-1.27,2.708-2.551,2.708c-1.312,0-2.394-0.84-2.394-2.604c0-1.774,1.26-2.719,2.593-2.719
			C43.043,23.532,44.082,24.319,44.082,26.146z M40.671,22.808c-0.315,0-0.567-0.231-0.567-0.567c0-0.357,0.252-0.588,0.567-0.588
			c0.325,0,0.566,0.231,0.566,0.588C41.237,22.577,40.996,22.808,40.671,22.808z M40.262,26.188c0,1.407,0.566,2.037,1.344,2.037
			c0.776,0,1.354-0.609,1.354-2.016s-0.577-2.058-1.354-2.058C40.828,24.151,40.262,24.771,40.262,26.188z M42.57,22.808
			c-0.336,0-0.577-0.231-0.577-0.567c0-0.357,0.241-0.588,0.577-0.588c0.315,0,0.557,0.231,0.557,0.588
			C43.127,22.577,42.886,22.808,42.57,22.808z"/>
		<path d="M46.519,24.498h0.031c0.221-0.356,0.609-0.966,1.291-0.966c0.494,0,0.725,0.231,0.725,0.557
			c0,0.231-0.104,0.431-0.188,0.535c-0.084-0.042-0.347-0.157-0.704-0.157c-0.577,0-0.871,0.231-1.092,0.535v3.16l0.756,0.137
			c0.105,0.021,0.147,0.052,0.147,0.136c0,0.105-0.084,0.262-0.104,0.294H44.84c0,0-0.011-0.063-0.011-0.094
			c0-0.189,0.126-0.273,0.325-0.347l0.368-0.126v-3.884l-0.745-0.116c0,0-0.011-0.062-0.011-0.104c0-0.179,0.136-0.305,0.388-0.326
			l1.428-0.136L46.519,24.498z"/>
		<path d="M53.469,28.141l0.767,0.105c0,0,0.011,0.042,0.011,0.084c0,0.189-0.137,0.315-0.389,0.336l-1.386,0.126v-0.683H52.44
			c-0.231,0.326-0.672,0.746-1.491,0.746c-1.028,0-1.994-0.662-1.994-2.488c0-1.953,1.365-2.835,2.709-2.835
			c0.304,0,0.566,0.053,0.745,0.095V21.79l-0.745-0.105c0,0-0.011-0.073-0.011-0.115c0-0.179,0.136-0.305,0.388-0.325l1.428-0.137
			V28.141z M52.409,24.477c-0.157-0.147-0.441-0.315-0.882-0.315c-0.851,0-1.48,0.609-1.48,1.995c0,1.354,0.588,1.9,1.291,1.9
			c0.609,0,0.935-0.284,1.071-0.441V24.477z"/>
		<path d="M55.959,26.209c0.01,1.302,0.629,1.911,1.532,1.911c0.672,0,1.05-0.263,1.312-0.483c0.104,0.084,0.157,0.262,0.157,0.357
			c0,0.263-0.693,0.861-1.858,0.861c-1.291,0-2.257-0.735-2.257-2.562s1.103-2.761,2.299-2.761c1.187,0,1.785,0.725,1.785,1.774
			c0,0.273-0.053,0.641-0.126,0.903H55.959z M57.796,25.653c0.021-0.095,0.052-0.273,0.052-0.452c0-0.578-0.209-1.071-0.818-1.071
			c-0.619,0-0.986,0.493-1.061,1.522H57.796z"/>
		<path d="M61.408,24.498h0.031c0.221-0.356,0.609-0.966,1.291-0.966c0.494,0,0.725,0.231,0.725,0.557
			c0,0.231-0.104,0.431-0.188,0.535c-0.084-0.042-0.347-0.157-0.704-0.157c-0.577,0-0.871,0.231-1.092,0.535v3.16l0.756,0.137
			c0.105,0.021,0.147,0.052,0.147,0.136c0,0.105-0.084,0.262-0.104,0.294h-2.541c0,0-0.011-0.063-0.011-0.094
			c0-0.189,0.126-0.273,0.325-0.347l0.368-0.126v-3.884l-0.745-0.116c0,0-0.011-0.062-0.011-0.104c0-0.179,0.136-0.305,0.388-0.326
			l1.428-0.136L61.408,24.498z"/>
		<path d="M66.982,24.235h-1.438v3.065c0,0.472,0.146,0.861,0.672,0.861c0.409,0,0.745-0.179,0.829-0.252
			c0.053,0.084,0.095,0.241,0.095,0.347c0,0.104-0.367,0.598-1.323,0.598c-0.955,0-1.333-0.556-1.333-1.365v-3.254h-0.787
			c0,0-0.011-0.063-0.011-0.094c0-0.2,0.126-0.315,0.325-0.357l0.515-0.126l0.241-1.417h0.777v1.417h1.554L66.982,24.235z"/>
		<path d="M74.353,28.141l0.766,0.105c0,0,0.011,0.042,0.011,0.084c0,0.189-0.137,0.315-0.389,0.336l-1.386,0.126v-0.683h-0.031
			c-0.23,0.326-0.672,0.746-1.49,0.746c-1.029,0-1.995-0.662-1.995-2.488c0-1.953,1.364-2.835,2.708-2.835
			c0.305,0,0.567,0.053,0.746,0.095V21.79l-0.746-0.105c0,0-0.01-0.073-0.01-0.115c0-0.179,0.137-0.305,0.389-0.325l1.428-0.137
			V28.141z M73.293,24.477c-0.158-0.147-0.441-0.315-0.882-0.315c-0.851,0-1.48,0.609-1.48,1.995c0,1.354,0.588,1.9,1.291,1.9
			c0.609,0,0.935-0.284,1.071-0.441V24.477z"/>
		<path d="M80.411,28.141l0.766,0.105c0,0,0.011,0.042,0.011,0.084c0,0.189-0.137,0.315-0.389,0.336l-1.386,0.126v-0.693h-0.021
			c-0.168,0.22-0.629,0.756-1.553,0.756c-1.123,0-1.648-0.662-1.648-1.9v-2.677l-0.745-0.116c0,0-0.011-0.062-0.011-0.104
			c0-0.179,0.137-0.305,0.389-0.326l1.428-0.136v3.307c0,0.955,0.504,1.176,0.966,1.176c0.535,0,0.891-0.231,1.133-0.504v-3.296
			l-0.746-0.116c0,0-0.01-0.062-0.01-0.104c0-0.179,0.137-0.305,0.389-0.326l1.427-0.136V28.141z"/>
		<path d="M83.383,24.498h0.031c0.221-0.356,0.609-0.966,1.292-0.966c0.493,0,0.724,0.231,0.724,0.557
			c0,0.231-0.104,0.431-0.188,0.535c-0.084-0.042-0.347-0.157-0.703-0.157c-0.578,0-0.872,0.231-1.092,0.535v3.16l0.756,0.137
			c0.104,0.021,0.146,0.052,0.146,0.136c0,0.105-0.084,0.262-0.105,0.294h-2.54c0,0-0.011-0.063-0.011-0.094
			c0-0.189,0.126-0.273,0.326-0.347l0.367-0.126v-3.884l-0.746-0.116c0,0-0.01-0.062-0.01-0.104c0-0.179,0.137-0.305,0.389-0.326
			l1.428-0.136L83.383,24.498z"/>
		<path d="M88.265,24.162c-0.703,0-1.312,0.504-1.312,1.879c0,1.323,0.515,2.089,1.502,2.089c0.65,0,1.028-0.336,1.196-0.504
			c0.095,0.094,0.168,0.262,0.168,0.356c0,0.263-0.577,0.872-1.731,0.872c-1.365,0-2.247-0.861-2.247-2.593
			c0-1.774,1.187-2.729,2.604-2.729c1.155,0,1.448,0.567,1.448,0.872c0,0.284-0.136,0.546-0.535,0.63
			C89.2,24.666,88.958,24.162,88.265,24.162z"/>
		<path d="M92.161,24.288h0.021c0.21-0.252,0.714-0.756,1.617-0.756c1.05,0,1.647,0.62,1.647,1.848v2.782l0.609,0.137
			c0.105,0.021,0.146,0.052,0.146,0.136c0,0.105-0.084,0.262-0.104,0.294h-2.383c0,0-0.011-0.063-0.011-0.094
			c0-0.189,0.126-0.284,0.325-0.347l0.347-0.126v-2.656c0-0.892-0.482-1.165-1.019-1.165c-0.65,0-0.997,0.283-1.196,0.483v3.338
			l0.588,0.137c0.104,0.021,0.146,0.052,0.146,0.136c0,0.105-0.073,0.262-0.104,0.294h-2.384c0,0-0.01-0.063-0.01-0.094
			c0-0.189,0.126-0.284,0.325-0.347l0.367-0.126V21.79l-0.745-0.105c0,0-0.011-0.073-0.011-0.115c0-0.179,0.137-0.305,0.389-0.325
			l1.438-0.137V24.288z"/>
		<path d="M97.558,24.823c-0.367,0-0.65-0.252-0.65-0.64c0-0.399,0.283-0.651,0.65-0.651c0.368,0,0.662,0.252,0.662,0.651
			C98.22,24.571,97.926,24.823,97.558,24.823z M97.558,28.865c-0.367,0-0.65-0.252-0.65-0.64c0-0.399,0.283-0.651,0.65-0.651
			c0.368,0,0.662,0.252,0.662,0.651C98.22,28.613,97.926,28.865,97.558,28.865z"/>
	</g>
	<g>
		<path d="M27.315,139.762c0,0.42,0.157,0.546,0.336,0.546c0.241,0,0.367-0.126,0.398-0.179c0.053,0.074,0.126,0.221,0.126,0.315
			c0,0.137-0.272,0.546-0.955,0.546c-0.483,0-0.788-0.21-0.882-0.735h-0.021c-0.115,0.2-0.504,0.756-1.375,0.756
			c-0.798,0-1.365-0.546-1.365-1.375c0-1.123,1.229-1.543,2.404-1.543h0.273v-0.473c0-0.955-0.252-1.333-0.903-1.333
			c-0.241,0-0.451,0.073-0.535,0.104c-0.095,0.2-0.179,0.567-0.231,0.924c0,0-0.157,0.011-0.241,0.011
			c-0.356,0-0.556-0.168-0.556-0.493c0-0.651,0.86-1.145,1.837-1.145c1.154,0,1.69,0.63,1.69,1.816V139.762z M26.013,138.617
			c-0.85,0.042-1.333,0.347-1.333,0.903c0,0.44,0.252,0.734,0.683,0.734s0.756-0.283,0.893-0.451v-1.196L26.013,138.617z"/>
		<path d="M33.309,140.297l0.767,0.105c0,0,0.011,0.042,0.011,0.084c0,0.188-0.137,0.314-0.389,0.336l-1.386,0.126v-0.693h-0.021
			c-0.168,0.221-0.63,0.756-1.554,0.756c-1.124,0-1.648-0.661-1.648-1.899v-2.678l-0.745-0.115c0,0-0.011-0.062-0.011-0.104
			c0-0.179,0.137-0.305,0.389-0.326l1.428-0.136v3.307c0,0.955,0.504,1.176,0.966,1.176c0.535,0,0.893-0.231,1.134-0.504v-3.297
			l-0.745-0.115c0,0-0.011-0.062-0.011-0.104c0-0.179,0.136-0.305,0.388-0.326l1.428-0.136V140.297z"/>
		<path d="M37.647,136.392h-1.281v3.927l0.714,0.137c0.104,0.021,0.147,0.052,0.147,0.136c0,0.105-0.074,0.263-0.105,0.294h-2.498
			c0,0-0.011-0.062-0.011-0.094c0-0.189,0.126-0.273,0.325-0.347l0.357-0.126v-3.927h-0.777c0,0-0.011-0.062-0.011-0.094
			c0-0.2,0.126-0.305,0.325-0.357l0.463-0.126v-0.104c0-1.69,1.028-2.51,1.932-2.51c0.524,0,0.734,0.231,0.734,0.557
			c0,0.263-0.157,0.409-0.314,0.493c-0.095-0.104-0.368-0.304-0.693-0.304c-0.451,0-0.609,0.252-0.609,0.871
			c0,0.325,0.021,0.997,0.021,0.997h1.396L37.647,136.392z"/>
		<path d="M42.886,136.413h-0.85c0.199,0.263,0.325,0.577,0.325,0.955c0,1.113-0.924,1.743-2.068,1.743
			c-0.179,0-0.336-0.021-0.493-0.053c-0.147,0.084-0.294,0.23-0.294,0.473c0,0.252,0.168,0.367,0.524,0.367h1.218
			c0.966,0,1.512,0.44,1.512,1.196c0,1.05-1.028,2.016-2.803,2.016c-1.291,0-1.921-0.451-1.921-1.218
			c0-0.734,0.577-1.081,0.955-1.196v-0.021c-0.273-0.146-0.431-0.398-0.431-0.734c0-0.609,0.557-0.893,0.756-0.997v-0.021
			c-0.588-0.263-0.966-0.798-0.966-1.554c0-1.103,0.924-1.68,1.995-1.68c0.283,0,0.556,0.042,0.818,0.126h1.837L42.886,136.413z
			 M39.862,140.843c-0.146,0-0.272-0.01-0.389-0.021c-0.272,0.157-0.451,0.42-0.451,0.776c0,0.546,0.336,0.893,1.103,0.893
			c1.019,0,1.648-0.473,1.648-1.028c0-0.431-0.241-0.62-0.777-0.62H39.862z M39.4,137.379c0,0.829,0.42,1.154,0.945,1.154
			c0.566,0,0.976-0.325,0.976-1.154c0-0.745-0.409-1.123-0.955-1.123S39.4,136.57,39.4,137.379z"/>
		<path d="M45.112,136.654h0.031c0.221-0.356,0.609-0.966,1.291-0.966c0.494,0,0.725,0.231,0.725,0.557
			c0,0.23-0.104,0.431-0.188,0.535c-0.084-0.042-0.347-0.157-0.704-0.157c-0.577,0-0.871,0.23-1.092,0.535v3.16l0.756,0.137
			c0.105,0.021,0.147,0.052,0.147,0.136c0,0.105-0.084,0.263-0.104,0.294h-2.541c0,0-0.011-0.062-0.011-0.094
			c0-0.189,0.126-0.273,0.325-0.347l0.368-0.126v-3.885l-0.745-0.115c0,0-0.011-0.062-0.011-0.104c0-0.179,0.136-0.305,0.388-0.326
			l1.428-0.136L45.112,136.654z"/>
		<path d="M52.368,140.297l0.766,0.105c0,0,0.011,0.042,0.011,0.084c0,0.188-0.137,0.314-0.389,0.336l-1.386,0.126v-0.693h-0.021
			c-0.168,0.221-0.63,0.756-1.554,0.756c-1.123,0-1.648-0.661-1.648-1.899v-2.678l-0.745-0.115c0,0-0.011-0.062-0.011-0.104
			c0-0.179,0.137-0.305,0.389-0.326l1.428-0.136v3.307c0,0.955,0.504,1.176,0.966,1.176c0.535,0,0.892-0.231,1.134-0.504v-3.297
			l-0.746-0.115c0,0-0.01-0.062-0.01-0.104c0-0.179,0.137-0.305,0.389-0.326l1.428-0.136V140.297z"/>
		<path d="M58.688,140.318l0.619,0.137c0.105,0.021,0.147,0.052,0.147,0.136c0,0.105-0.084,0.263-0.104,0.294h-2.384
			c0,0-0.011-0.062-0.011-0.094c0-0.189,0.127-0.284,0.326-0.347l0.346-0.126v-2.656c0-0.893-0.504-1.165-1.018-1.165
			c-0.599,0-0.987,0.283-1.207,0.462v3.359l0.598,0.137c0.105,0.021,0.147,0.052,0.147,0.136c0,0.105-0.084,0.263-0.105,0.294H53.66
			c0,0-0.011-0.062-0.011-0.094c0-0.189,0.126-0.273,0.326-0.347l0.367-0.126v-3.885l-0.746-0.115c0,0-0.01-0.062-0.01-0.104
			c0-0.179,0.137-0.305,0.389-0.326l1.428-0.136l-0.063,0.734h0.031c0.284-0.305,0.756-0.798,1.722-0.798
			c1.029,0,1.596,0.661,1.596,1.848V140.318z"/>
		<path d="M64.505,140.297l0.767,0.105c0,0,0.011,0.042,0.011,0.084c0,0.188-0.137,0.314-0.389,0.336l-1.386,0.126v-0.683h-0.031
			c-0.231,0.325-0.672,0.745-1.491,0.745c-1.028,0-1.994-0.661-1.994-2.487c0-1.953,1.365-2.835,2.709-2.835
			c0.304,0,0.566,0.053,0.745,0.095v-1.837l-0.745-0.105c0,0-0.011-0.073-0.011-0.115c0-0.179,0.136-0.305,0.388-0.325l1.428-0.137
			V140.297z M63.445,136.634c-0.157-0.147-0.441-0.315-0.882-0.315c-0.851,0-1.48,0.609-1.48,1.995c0,1.354,0.588,1.899,1.291,1.899
			c0.609,0,0.935-0.283,1.071-0.44V136.634z"/>
		<path d="M69.179,138.365c0.01,1.302,0.629,1.911,1.532,1.911c0.672,0,1.05-0.263,1.312-0.483c0.104,0.084,0.157,0.263,0.157,0.357
			c0,0.263-0.693,0.86-1.858,0.86c-1.291,0-2.257-0.734-2.257-2.562c0-1.826,1.103-2.761,2.299-2.761
			c1.187,0,1.785,0.725,1.785,1.774c0,0.272-0.053,0.641-0.126,0.902H69.179z M71.015,137.81c0.021-0.095,0.052-0.273,0.052-0.452
			c0-0.577-0.209-1.07-0.818-1.07c-0.619,0-0.986,0.493-1.061,1.522H71.015z"/>
		<path d="M74.69,140.318l0.619,0.137c0.104,0.021,0.146,0.052,0.146,0.136c0,0.105-0.084,0.263-0.104,0.294h-2.404
			c0,0-0.011-0.062-0.011-0.094c0-0.189,0.126-0.273,0.326-0.347l0.367-0.126v-3.885l-0.746-0.115c0,0-0.01-0.062-0.01-0.104
			c0-0.179,0.137-0.305,0.389-0.326l1.428-0.136V140.318z M74.154,134.712c-0.388,0-0.683-0.262-0.683-0.672
			c0-0.398,0.295-0.672,0.683-0.672c0.378,0,0.693,0.273,0.693,0.672C74.847,134.45,74.532,134.712,74.154,134.712z"/>
		<path d="M81.02,140.318l0.619,0.137c0.105,0.021,0.147,0.052,0.147,0.136c0,0.105-0.084,0.263-0.104,0.294h-2.384
			c0,0-0.011-0.062-0.011-0.094c0-0.189,0.127-0.284,0.326-0.347l0.346-0.126v-2.656c0-0.893-0.504-1.165-1.018-1.165
			c-0.599,0-0.987,0.283-1.207,0.462v3.359l0.598,0.137c0.105,0.021,0.147,0.052,0.147,0.136c0,0.105-0.084,0.263-0.105,0.294
			h-2.383c0,0-0.011-0.062-0.011-0.094c0-0.189,0.126-0.273,0.326-0.347l0.367-0.126v-3.885l-0.746-0.115c0,0-0.01-0.062-0.01-0.104
			c0-0.179,0.137-0.305,0.389-0.326l1.428-0.136l-0.063,0.734h0.031c0.284-0.305,0.756-0.798,1.722-0.798
			c1.029,0,1.596,0.661,1.596,1.848V140.318z"/>
		<path d="M83.436,138.365c0.011,1.302,0.631,1.911,1.533,1.911c0.672,0,1.05-0.263,1.312-0.483
			c0.104,0.084,0.157,0.263,0.157,0.357c0,0.263-0.692,0.86-1.858,0.86c-1.291,0-2.257-0.734-2.257-2.562
			c0-1.826,1.103-2.761,2.299-2.761c1.187,0,1.785,0.725,1.785,1.774c0,0.272-0.053,0.641-0.126,0.902H83.436z M85.274,137.81
			c0.021-0.095,0.053-0.273,0.053-0.452c0-0.577-0.211-1.07-0.819-1.07c-0.619,0-0.987,0.493-1.061,1.522H85.274z"/>
		<path d="M89.694,136.466c-0.115-0.084-0.378-0.21-0.693-0.21c-0.346,0-0.703,0.146-0.703,0.588c0,0.462,0.493,0.734,0.997,1.028
			c0.63,0.378,1.302,0.787,1.302,1.627c0,0.861-0.714,1.512-1.868,1.512c-0.588,0-1.113-0.178-1.333-0.314
			c-0.043-0.263-0.074-0.535-0.074-0.809c0-0.42,0.115-0.588,0.431-0.588c0.053,0,0.137,0.011,0.137,0.011l0.22,0.893
			c0.105,0.073,0.41,0.21,0.715,0.21c0.514,0,0.84-0.2,0.84-0.641c0-0.451-0.504-0.703-0.977-0.997
			c-0.641-0.41-1.281-0.819-1.281-1.722c0-0.819,0.714-1.365,1.722-1.365c0.609,0,1.04,0.21,1.229,0.389
			c0.021,0.146,0.042,0.367,0.042,0.577c0,0.367-0.073,0.609-0.451,0.609c-0.053,0-0.126-0.011-0.126-0.011L89.694,136.466z"/>
		<path d="M97.474,137.138v0.021c1.019,0.168,1.69,0.745,1.69,1.701c0,1.176-0.966,2.025-2.855,2.025h-2.667
			c0,0-0.011-0.062-0.011-0.115c0-0.168,0.084-0.314,0.357-0.378l0.441-0.104v-6.068l-0.641-0.146
			c-0.105-0.021-0.147-0.053-0.147-0.116c0-0.094,0.073-0.22,0.116-0.314h2.467c1.868,0,2.761,0.661,2.761,1.826
			C98.986,136.466,98.378,136.938,97.474,137.138z M96.131,134.282h-0.567v2.646h0.557c1.197,0,1.701-0.588,1.701-1.334
			C97.821,134.733,97.286,134.282,96.131,134.282z M96.257,137.536h-0.693v2.709h0.631c1.228,0,1.773-0.578,1.773-1.396
			C97.968,138.071,97.39,137.536,96.257,137.536z"/>
		<path d="M101.233,138.365c0.011,1.302,0.631,1.911,1.533,1.911c0.672,0,1.05-0.263,1.312-0.483
			c0.104,0.084,0.157,0.263,0.157,0.357c0,0.263-0.692,0.86-1.858,0.86c-1.291,0-2.257-0.734-2.257-2.562
			c0-1.826,1.103-2.761,2.299-2.761c1.187,0,1.785,0.725,1.785,1.774c0,0.272-0.053,0.641-0.126,0.902H101.233z M103.071,137.81
			c0.021-0.095,0.053-0.273,0.053-0.452c0-0.577-0.211-1.07-0.819-1.07c-0.619,0-0.987,0.493-1.061,1.522H103.071z"/>
		<path d="M107.492,136.466c-0.116-0.084-0.378-0.21-0.693-0.21c-0.347,0-0.703,0.146-0.703,0.588c0,0.462,0.493,0.734,0.997,1.028
			c0.63,0.378,1.302,0.787,1.302,1.627c0,0.861-0.714,1.512-1.868,1.512c-0.588,0-1.113-0.178-1.334-0.314
			c-0.041-0.263-0.073-0.535-0.073-0.809c0-0.42,0.116-0.588,0.431-0.588c0.053,0,0.137,0.011,0.137,0.011l0.221,0.893
			c0.104,0.073,0.409,0.21,0.713,0.21c0.515,0,0.84-0.2,0.84-0.641c0-0.451-0.504-0.703-0.976-0.997
			c-0.641-0.41-1.281-0.819-1.281-1.722c0-0.819,0.714-1.365,1.722-1.365c0.609,0,1.039,0.21,1.229,0.389
			c0.021,0.146,0.042,0.367,0.042,0.577c0,0.367-0.073,0.609-0.451,0.609c-0.053,0-0.126-0.011-0.126-0.011L107.492,136.466z"/>
		<path d="M111.649,136.318c-0.703,0-1.312,0.504-1.312,1.879c0,1.323,0.515,2.09,1.502,2.09c0.65,0,1.028-0.336,1.196-0.504
			c0.095,0.094,0.168,0.262,0.168,0.356c0,0.263-0.577,0.871-1.731,0.871c-1.365,0-2.247-0.86-2.247-2.593
			c0-1.774,1.187-2.729,2.604-2.729c1.155,0,1.448,0.567,1.448,0.871c0,0.284-0.136,0.546-0.535,0.63
			C112.584,136.822,112.343,136.318,111.649,136.318z"/>
		<path d="M115.546,136.444h0.021c0.21-0.252,0.714-0.756,1.617-0.756c1.05,0,1.647,0.619,1.647,1.848v2.782l0.609,0.137
			c0.105,0.021,0.146,0.052,0.146,0.136c0,0.105-0.084,0.263-0.104,0.294h-2.383c0,0-0.011-0.062-0.011-0.094
			c0-0.189,0.126-0.284,0.325-0.347l0.347-0.126v-2.656c0-0.893-0.482-1.165-1.019-1.165c-0.65,0-0.997,0.283-1.196,0.482v3.339
			l0.588,0.137c0.104,0.021,0.146,0.052,0.146,0.136c0,0.105-0.073,0.263-0.104,0.294h-2.384c0,0-0.01-0.062-0.01-0.094
			c0-0.189,0.126-0.284,0.325-0.347l0.367-0.126v-6.372l-0.745-0.105c0,0-0.011-0.073-0.011-0.115c0-0.179,0.137-0.305,0.389-0.325
			l1.438-0.137V136.444z"/>
		<path d="M121.719,140.318l0.608,0.137c0.105,0.021,0.147,0.052,0.147,0.136c0,0.105-0.073,0.263-0.104,0.294h-2.395
			c0,0-0.01-0.062-0.01-0.094c0-0.189,0.126-0.284,0.325-0.347l0.367-0.126v-6.372l-0.745-0.105c0,0-0.011-0.073-0.011-0.115
			c0-0.179,0.137-0.305,0.389-0.325l1.428-0.137V140.318z"/>
		<path d="M127.819,140.297l0.766,0.105c0,0,0.011,0.042,0.011,0.084c0,0.188-0.137,0.314-0.389,0.336l-1.386,0.126v-0.693h-0.021
			c-0.168,0.221-0.63,0.756-1.554,0.756c-1.123,0-1.648-0.661-1.648-1.899v-2.678l-0.745-0.115c0,0-0.011-0.062-0.011-0.104
			c0-0.179,0.137-0.305,0.389-0.326l1.428-0.136v3.307c0,0.955,0.504,1.176,0.966,1.176c0.535,0,0.892-0.231,1.134-0.504v-3.297
			l-0.746-0.115c0,0-0.01-0.062-0.01-0.104c0-0.179,0.137-0.305,0.389-0.326l1.428-0.136V140.297z"/>
		<path d="M131.599,136.466c-0.116-0.084-0.378-0.21-0.693-0.21c-0.347,0-0.703,0.146-0.703,0.588c0,0.462,0.493,0.734,0.997,1.028
			c0.63,0.378,1.302,0.787,1.302,1.627c0,0.861-0.714,1.512-1.868,1.512c-0.588,0-1.113-0.178-1.334-0.314
			c-0.041-0.263-0.073-0.535-0.073-0.809c0-0.42,0.116-0.588,0.431-0.588c0.053,0,0.137,0.011,0.137,0.011l0.221,0.893
			c0.104,0.073,0.409,0.21,0.713,0.21c0.515,0,0.84-0.2,0.84-0.641c0-0.451-0.504-0.703-0.976-0.997
			c-0.641-0.41-1.281-0.819-1.281-1.722c0-0.819,0.714-1.365,1.722-1.365c0.609,0,1.039,0.21,1.229,0.389
			c0.021,0.146,0.042,0.367,0.042,0.577c0,0.367-0.073,0.609-0.451,0.609c-0.053,0-0.126-0.011-0.126-0.011L131.599,136.466z"/>
		<path d="M135.736,136.466c-0.116-0.084-0.378-0.21-0.693-0.21c-0.347,0-0.703,0.146-0.703,0.588c0,0.462,0.493,0.734,0.997,1.028
			c0.63,0.378,1.302,0.787,1.302,1.627c0,0.861-0.714,1.512-1.868,1.512c-0.588,0-1.113-0.178-1.334-0.314
			c-0.041-0.263-0.073-0.535-0.073-0.809c0-0.42,0.116-0.588,0.431-0.588c0.053,0,0.137,0.011,0.137,0.011l0.221,0.893
			c0.104,0.073,0.409,0.21,0.713,0.21c0.515,0,0.84-0.2,0.84-0.641c0-0.451-0.504-0.703-0.976-0.997
			c-0.641-0.41-1.281-0.819-1.281-1.722c0-0.819,0.714-1.365,1.722-1.365c0.609,0,1.039,0.21,1.229,0.389
			c0.021,0.146,0.042,0.367,0.042,0.577c0,0.367-0.073,0.609-0.451,0.609c-0.053,0-0.126-0.011-0.126-0.011L135.736,136.466z"/>
		<path d="M138.581,138.365c0.011,1.302,0.631,1.911,1.533,1.911c0.672,0,1.05-0.263,1.312-0.483
			c0.104,0.084,0.157,0.263,0.157,0.357c0,0.263-0.692,0.86-1.858,0.86c-1.291,0-2.257-0.734-2.257-2.562
			c0-1.826,1.103-2.761,2.299-2.761c1.187,0,1.785,0.725,1.785,1.774c0,0.272-0.053,0.641-0.126,0.902H138.581z M140.419,137.81
			c0.021-0.095,0.053-0.273,0.053-0.452c0-0.577-0.211-1.07-0.819-1.07c-0.619,0-0.987,0.493-1.061,1.522H140.419z"/>
		<path d="M144.84,136.466c-0.116-0.084-0.378-0.21-0.693-0.21c-0.347,0-0.703,0.146-0.703,0.588c0,0.462,0.493,0.734,0.997,1.028
			c0.63,0.378,1.302,0.787,1.302,1.627c0,0.861-0.714,1.512-1.868,1.512c-0.588,0-1.113-0.178-1.334-0.314
			c-0.041-0.263-0.073-0.535-0.073-0.809c0-0.42,0.116-0.588,0.431-0.588c0.053,0,0.137,0.011,0.137,0.011l0.221,0.893
			c0.104,0.073,0.409,0.21,0.713,0.21c0.515,0,0.84-0.2,0.84-0.641c0-0.451-0.504-0.703-0.976-0.997
			c-0.641-0.41-1.281-0.819-1.281-1.722c0-0.819,0.714-1.365,1.722-1.365c0.609,0,1.039,0.21,1.229,0.389
			c0.021,0.146,0.042,0.367,0.042,0.577c0,0.367-0.073,0.609-0.451,0.609c-0.053,0-0.126-0.011-0.126-0.011L144.84,136.466z"/>
		<path d="M28.155,152.298l0.766,0.105c0,0,0.011,0.041,0.011,0.084c0,0.188-0.137,0.314-0.389,0.336l-1.386,0.125v-0.682h-0.031
			c-0.23,0.325-0.672,0.745-1.49,0.745c-1.029,0-1.995-0.661-1.995-2.488c0-1.952,1.364-2.834,2.708-2.834
			c0.305,0,0.567,0.052,0.746,0.095v-1.838l-0.746-0.104c0,0-0.01-0.073-0.01-0.116c0-0.178,0.137-0.304,0.389-0.325l1.428-0.136
			V152.298z M27.095,148.634c-0.158-0.146-0.441-0.314-0.882-0.314c-0.851,0-1.48,0.608-1.48,1.994c0,1.354,0.588,1.9,1.291,1.9
			c0.609,0,0.935-0.283,1.071-0.441V148.634z"/>
		<path d="M30.643,150.366c0.011,1.302,0.631,1.91,1.533,1.91c0.672,0,1.05-0.262,1.312-0.482c0.104,0.084,0.157,0.263,0.157,0.357
			c0,0.262-0.692,0.86-1.858,0.86c-1.291,0-2.257-0.735-2.257-2.562s1.103-2.761,2.299-2.761c1.187,0,1.785,0.724,1.785,1.774
			c0,0.272-0.053,0.64-0.126,0.902H30.643z M32.481,149.81c0.021-0.094,0.053-0.272,0.053-0.451c0-0.577-0.211-1.07-0.819-1.07
			c-0.619,0-0.987,0.493-1.061,1.521H32.481z"/>
		<path d="M36.901,148.466c-0.115-0.084-0.378-0.21-0.693-0.21c-0.346,0-0.703,0.147-0.703,0.588c0,0.462,0.493,0.735,0.997,1.029
			c0.63,0.378,1.302,0.787,1.302,1.627c0,0.86-0.714,1.512-1.868,1.512c-0.588,0-1.113-0.179-1.333-0.315
			c-0.043-0.262-0.074-0.535-0.074-0.808c0-0.42,0.115-0.588,0.431-0.588c0.053,0,0.137,0.011,0.137,0.011l0.22,0.892
			c0.105,0.073,0.41,0.21,0.715,0.21c0.514,0,0.84-0.199,0.84-0.641c0-0.451-0.504-0.703-0.977-0.997
			c-0.641-0.409-1.281-0.818-1.281-1.722c0-0.818,0.714-1.364,1.722-1.364c0.609,0,1.04,0.21,1.229,0.388
			c0.021,0.147,0.042,0.368,0.042,0.578c0,0.367-0.073,0.608-0.451,0.608c-0.053,0-0.126-0.011-0.126-0.011L36.901,148.466z"/>
		<path d="M43.222,152.886h-2.373c0,0-0.011-0.062-0.011-0.115c0-0.168,0.084-0.315,0.357-0.378l0.441-0.105v-6.067l-0.641-0.147
			c-0.105-0.021-0.147-0.052-0.147-0.115c0-0.095,0.073-0.221,0.116-0.315h2.257c2.646,0,4.23,0.987,4.23,3.518
			C47.453,151.71,45.878,152.886,43.222,152.886z M43.19,146.282h-0.42v5.963h0.42c1.942,0,3.056-1.018,3.056-3.055
			C46.246,147.228,45.122,146.282,43.19,146.282z"/>
		<path d="M49.501,150.366c0.011,1.302,0.631,1.91,1.533,1.91c0.672,0,1.05-0.262,1.312-0.482c0.104,0.084,0.157,0.263,0.157,0.357
			c0,0.262-0.692,0.86-1.858,0.86c-1.291,0-2.257-0.735-2.257-2.562s1.103-2.761,2.299-2.761c1.187,0,1.785,0.724,1.785,1.774
			c0,0.272-0.053,0.64-0.126,0.902H49.501z M51.339,149.81c0.021-0.094,0.053-0.272,0.053-0.451c0-0.577-0.211-1.07-0.819-1.07
			c-0.619,0-0.987,0.493-1.061,1.521H51.339z"/>
		<path d="M58.038,152.298l0.766,0.105c0,0,0.011,0.041,0.011,0.084c0,0.188-0.137,0.314-0.389,0.336l-1.386,0.125v-0.692h-0.021
			c-0.168,0.221-0.63,0.756-1.554,0.756c-1.123,0-1.648-0.661-1.648-1.9v-2.677l-0.745-0.115c0,0-0.011-0.063-0.011-0.105
			c0-0.178,0.137-0.305,0.389-0.325l1.428-0.137v3.308c0,0.955,0.504,1.176,0.966,1.176c0.535,0,0.892-0.231,1.134-0.504v-3.297
			l-0.746-0.115c0,0-0.01-0.063-0.01-0.105c0-0.178,0.137-0.305,0.389-0.325l1.428-0.137V152.298z"/>
		<path d="M62.417,148.393h-1.438v3.065c0,0.473,0.146,0.861,0.672,0.861c0.409,0,0.745-0.179,0.829-0.252
			c0.053,0.084,0.095,0.241,0.095,0.346c0,0.105-0.368,0.599-1.323,0.599s-1.333-0.557-1.333-1.364v-3.255h-0.787
			c0,0-0.011-0.063-0.011-0.095c0-0.199,0.126-0.314,0.325-0.356l0.515-0.126l0.241-1.418h0.777v1.418h1.554L62.417,148.393z"/>
		<path d="M65.493,148.466c-0.115-0.084-0.378-0.21-0.693-0.21c-0.346,0-0.703,0.147-0.703,0.588c0,0.462,0.493,0.735,0.997,1.029
			c0.63,0.378,1.302,0.787,1.302,1.627c0,0.86-0.714,1.512-1.868,1.512c-0.588,0-1.113-0.179-1.333-0.315
			c-0.043-0.262-0.074-0.535-0.074-0.808c0-0.42,0.115-0.588,0.431-0.588c0.053,0,0.137,0.011,0.137,0.011l0.22,0.892
			c0.105,0.073,0.41,0.21,0.715,0.21c0.514,0,0.84-0.199,0.84-0.641c0-0.451-0.504-0.703-0.977-0.997
			c-0.641-0.409-1.281-0.818-1.281-1.722c0-0.818,0.714-1.364,1.722-1.364c0.609,0,1.04,0.21,1.229,0.388
			c0.021,0.147,0.042,0.368,0.042,0.578c0,0.367-0.073,0.608-0.451,0.608c-0.053,0-0.126-0.011-0.126-0.011L65.493,148.466z"/>
		<path d="M69.65,148.319c-0.703,0-1.312,0.504-1.312,1.879c0,1.322,0.514,2.089,1.501,2.089c0.65,0,1.028-0.336,1.196-0.504
			c0.095,0.095,0.168,0.263,0.168,0.357c0,0.263-0.577,0.871-1.732,0.871c-1.364,0-2.246-0.86-2.246-2.593
			c0-1.774,1.187-2.729,2.604-2.729c1.154,0,1.449,0.566,1.449,0.871c0,0.283-0.137,0.546-0.536,0.63
			C70.585,148.823,70.344,148.319,69.65,148.319z"/>
		<path d="M73.546,148.445h0.021c0.21-0.252,0.714-0.756,1.617-0.756c1.05,0,1.647,0.619,1.647,1.848v2.782l0.609,0.136
			c0.105,0.021,0.146,0.053,0.146,0.137c0,0.104-0.084,0.263-0.104,0.294h-2.383c0,0-0.011-0.062-0.011-0.095
			c0-0.188,0.126-0.283,0.325-0.347l0.347-0.125v-2.656c0-0.893-0.482-1.166-1.019-1.166c-0.65,0-0.997,0.284-1.196,0.483v3.339
			l0.588,0.136c0.104,0.021,0.146,0.053,0.146,0.137c0,0.104-0.073,0.263-0.104,0.294h-2.384c0,0-0.01-0.062-0.01-0.095
			c0-0.188,0.126-0.283,0.325-0.347l0.367-0.125v-6.373l-0.745-0.104c0,0-0.011-0.073-0.011-0.116c0-0.178,0.137-0.304,0.389-0.325
			l1.438-0.136V148.445z"/>
		<path d="M79.237,150.366c0.01,1.302,0.629,1.91,1.532,1.91c0.672,0,1.05-0.262,1.312-0.482c0.104,0.084,0.157,0.263,0.157,0.357
			c0,0.262-0.693,0.86-1.858,0.86c-1.291,0-2.257-0.735-2.257-2.562s1.103-2.761,2.299-2.761c1.187,0,1.785,0.724,1.785,1.774
			c0,0.272-0.053,0.64-0.126,0.902H79.237z M81.074,149.81c0.021-0.094,0.052-0.272,0.052-0.451c0-0.577-0.209-1.07-0.818-1.07
			c-0.619,0-0.986,0.493-1.061,1.521H81.074z"/>
		<path d="M88.035,152.319l0.62,0.136c0.104,0.021,0.146,0.053,0.146,0.137c0,0.104-0.084,0.263-0.105,0.294h-2.383
			c0,0-0.01-0.062-0.01-0.095c0-0.188,0.125-0.283,0.325-0.347l0.347-0.125v-2.656c0-0.893-0.504-1.166-1.019-1.166
			c-0.599,0-0.987,0.284-1.208,0.463v3.359l0.599,0.136c0.105,0.021,0.147,0.053,0.147,0.137c0,0.104-0.084,0.263-0.105,0.294
			h-2.383c0,0-0.011-0.062-0.011-0.095c0-0.188,0.126-0.272,0.325-0.347l0.368-0.125v-3.885l-0.745-0.115
			c0,0-0.011-0.063-0.011-0.105c0-0.178,0.136-0.305,0.388-0.325l1.428-0.137l-0.062,0.735h0.031
			c0.283-0.305,0.756-0.798,1.722-0.798c1.029,0,1.596,0.661,1.596,1.848V152.319z"/>
		<path d="M95.385,149.138v0.021c1.019,0.168,1.69,0.745,1.69,1.7c0,1.176-0.966,2.026-2.855,2.026h-2.667
			c0,0-0.011-0.062-0.011-0.115c0-0.168,0.084-0.315,0.357-0.378l0.441-0.105v-6.067l-0.641-0.147
			c-0.105-0.021-0.147-0.052-0.147-0.115c0-0.095,0.073-0.221,0.116-0.315h2.467c1.868,0,2.761,0.662,2.761,1.827
			C96.896,148.466,96.288,148.938,95.385,149.138z M94.041,146.282h-0.567v2.646h0.557c1.197,0,1.701-0.588,1.701-1.333
			C95.731,146.733,95.196,146.282,94.041,146.282z M94.167,149.537h-0.693v2.708h0.631c1.228,0,1.773-0.577,1.773-1.396
			C95.878,150.072,95.301,149.537,94.167,149.537z"/>
		<path d="M102.714,152.298l0.767,0.105c0,0,0.011,0.041,0.011,0.084c0,0.188-0.137,0.314-0.389,0.336l-1.386,0.125v-0.692h-0.021
			c-0.168,0.221-0.63,0.756-1.554,0.756c-1.124,0-1.648-0.661-1.648-1.9v-2.677l-0.745-0.115c0,0-0.011-0.063-0.011-0.105
			c0-0.178,0.137-0.305,0.389-0.325l1.428-0.137v3.308c0,0.955,0.504,1.176,0.966,1.176c0.535,0,0.893-0.231,1.134-0.504v-3.297
			l-0.745-0.115c0,0-0.011-0.063-0.011-0.105c0-0.178,0.136-0.305,0.388-0.325l1.428-0.137V152.298z"/>
		<path d="M109.034,152.319l0.619,0.136c0.105,0.021,0.147,0.053,0.147,0.137c0,0.104-0.084,0.263-0.104,0.294h-2.384
			c0,0-0.011-0.062-0.011-0.095c0-0.188,0.127-0.283,0.326-0.347l0.346-0.125v-2.656c0-0.893-0.504-1.166-1.018-1.166
			c-0.599,0-0.987,0.284-1.207,0.463v3.359l0.598,0.136c0.105,0.021,0.147,0.053,0.147,0.137c0,0.104-0.084,0.263-0.105,0.294
			h-2.383c0,0-0.011-0.062-0.011-0.095c0-0.188,0.126-0.272,0.326-0.347l0.367-0.125v-3.885l-0.746-0.115c0,0-0.01-0.063-0.01-0.105
			c0-0.178,0.137-0.305,0.389-0.325l1.428-0.137l-0.063,0.735h0.031c0.284-0.305,0.756-0.798,1.722-0.798
			c1.029,0,1.596,0.661,1.596,1.848V152.319z"/>
		<path d="M114.852,152.298l0.766,0.105c0,0,0.011,0.041,0.011,0.084c0,0.188-0.137,0.314-0.389,0.336l-1.386,0.125v-0.682h-0.031
			c-0.23,0.325-0.672,0.745-1.49,0.745c-1.029,0-1.995-0.661-1.995-2.488c0-1.952,1.364-2.834,2.708-2.834
			c0.305,0,0.567,0.052,0.746,0.095v-1.838l-0.746-0.104c0,0-0.01-0.073-0.01-0.116c0-0.178,0.137-0.304,0.389-0.325l1.428-0.136
			V152.298z M113.792,148.634c-0.158-0.146-0.441-0.314-0.882-0.314c-0.851,0-1.48,0.608-1.48,1.994c0,1.354,0.588,1.9,1.291,1.9
			c0.609,0,0.935-0.283,1.071-0.441V148.634z"/>
		<path d="M117.341,150.366c0.01,1.302,0.629,1.91,1.532,1.91c0.672,0,1.05-0.262,1.312-0.482c0.104,0.084,0.157,0.263,0.157,0.357
			c0,0.262-0.693,0.86-1.858,0.86c-1.291,0-2.257-0.735-2.257-2.562s1.103-2.761,2.299-2.761c1.187,0,1.785,0.724,1.785,1.774
			c0,0.272-0.053,0.64-0.126,0.902H117.341z M119.178,149.81c0.021-0.094,0.052-0.272,0.052-0.451c0-0.577-0.209-1.07-0.818-1.07
			c-0.619,0-0.986,0.493-1.061,1.521H119.178z"/>
		<path d="M123.598,148.466c-0.115-0.084-0.378-0.21-0.693-0.21c-0.346,0-0.703,0.147-0.703,0.588c0,0.462,0.493,0.735,0.997,1.029
			c0.63,0.378,1.302,0.787,1.302,1.627c0,0.86-0.714,1.512-1.868,1.512c-0.588,0-1.113-0.179-1.333-0.315
			c-0.043-0.262-0.074-0.535-0.074-0.808c0-0.42,0.115-0.588,0.431-0.588c0.053,0,0.137,0.011,0.137,0.011l0.22,0.892
			c0.105,0.073,0.41,0.21,0.715,0.21c0.514,0,0.84-0.199,0.84-0.641c0-0.451-0.504-0.703-0.977-0.997
			c-0.641-0.409-1.281-0.818-1.281-1.722c0-0.818,0.714-1.364,1.722-1.364c0.609,0,1.04,0.21,1.229,0.388
			c0.021,0.147,0.042,0.368,0.042,0.578c0,0.367-0.073,0.608-0.451,0.608c-0.053,0-0.126-0.011-0.126-0.011L123.598,148.466z"/>
		<path d="M128.333,148.393h-1.437v3.065c0,0.473,0.146,0.861,0.672,0.861c0.409,0,0.745-0.179,0.829-0.252
			c0.053,0.084,0.095,0.241,0.095,0.346c0,0.105-0.367,0.599-1.323,0.599c-0.955,0-1.333-0.557-1.333-1.364v-3.255h-0.787
			c0,0-0.011-0.063-0.011-0.095c0-0.199,0.126-0.314,0.325-0.356l0.515-0.126l0.241-1.418h0.777v1.418h1.554L128.333,148.393z"/>
		<path d="M132.68,151.763c0,0.42,0.157,0.546,0.336,0.546c0.241,0,0.367-0.126,0.398-0.179c0.053,0.073,0.126,0.221,0.126,0.314
			c0,0.137-0.272,0.547-0.955,0.547c-0.483,0-0.788-0.211-0.882-0.735h-0.021c-0.115,0.199-0.504,0.756-1.375,0.756
			c-0.798,0-1.365-0.546-1.365-1.375c0-1.124,1.229-1.544,2.404-1.544h0.273v-0.472c0-0.956-0.252-1.333-0.903-1.333
			c-0.241,0-0.451,0.073-0.535,0.104c-0.095,0.199-0.179,0.567-0.231,0.924c0,0-0.157,0.011-0.241,0.011
			c-0.356,0-0.556-0.168-0.556-0.494c0-0.65,0.86-1.144,1.837-1.144c1.154,0,1.69,0.63,1.69,1.815V151.763z M131.378,150.618
			c-0.85,0.042-1.333,0.347-1.333,0.902c0,0.441,0.252,0.735,0.683,0.735s0.756-0.283,0.893-0.451v-1.197L131.378,150.618z"/>
		<path d="M138.644,148.413h-0.851c0.2,0.263,0.326,0.578,0.326,0.956c0,1.112-0.924,1.742-2.068,1.742
			c-0.179,0-0.336-0.021-0.493-0.052c-0.147,0.084-0.294,0.23-0.294,0.472c0,0.252,0.168,0.368,0.524,0.368h1.218
			c0.966,0,1.512,0.44,1.512,1.196c0,1.05-1.028,2.016-2.803,2.016c-1.291,0-1.921-0.451-1.921-1.218
			c0-0.734,0.577-1.081,0.955-1.197v-0.021c-0.272-0.147-0.431-0.399-0.431-0.735c0-0.608,0.557-0.892,0.756-0.997v-0.021
			c-0.588-0.263-0.966-0.798-0.966-1.554c0-1.103,0.924-1.68,1.995-1.68c0.283,0,0.557,0.042,0.818,0.126h1.838L138.644,148.413z
			 M135.621,152.844c-0.146,0-0.272-0.011-0.388-0.021c-0.273,0.157-0.452,0.42-0.452,0.776c0,0.546,0.336,0.893,1.103,0.893
			c1.019,0,1.648-0.473,1.648-1.029c0-0.431-0.242-0.619-0.777-0.619H135.621z M135.159,149.38c0,0.829,0.42,1.154,0.945,1.154
			c0.566,0,0.977-0.325,0.977-1.154c0-0.746-0.41-1.124-0.956-1.124S135.159,148.571,135.159,149.38z"/>
		<path d="M140.388,150.366c0.011,1.302,0.631,1.91,1.533,1.91c0.672,0,1.05-0.262,1.312-0.482c0.104,0.084,0.157,0.263,0.157,0.357
			c0,0.262-0.692,0.86-1.858,0.86c-1.291,0-2.257-0.735-2.257-2.562s1.103-2.761,2.299-2.761c1.187,0,1.785,0.724,1.785,1.774
			c0,0.272-0.053,0.64-0.126,0.902H140.388z M142.225,149.81c0.021-0.094,0.053-0.272,0.053-0.451c0-0.577-0.211-1.07-0.819-1.07
			c-0.619,0-0.987,0.493-1.061,1.521H142.225z"/>
		<path d="M146.645,148.466c-0.115-0.084-0.378-0.21-0.693-0.21c-0.346,0-0.703,0.147-0.703,0.588c0,0.462,0.493,0.735,0.997,1.029
			c0.63,0.378,1.302,0.787,1.302,1.627c0,0.86-0.714,1.512-1.868,1.512c-0.588,0-1.113-0.179-1.333-0.315
			c-0.043-0.262-0.074-0.535-0.074-0.808c0-0.42,0.115-0.588,0.431-0.588c0.053,0,0.137,0.011,0.137,0.011l0.22,0.892
			c0.105,0.073,0.41,0.21,0.715,0.21c0.514,0,0.84-0.199,0.84-0.641c0-0.451-0.504-0.703-0.977-0.997
			c-0.641-0.409-1.281-0.818-1.281-1.722c0-0.818,0.714-1.364,1.722-1.364c0.609,0,1.04,0.21,1.229,0.388
			c0.021,0.147,0.042,0.368,0.042,0.578c0,0.367-0.073,0.608-0.451,0.608c-0.053,0-0.126-0.011-0.126-0.011L146.645,148.466z"/>
	</g>
</g>
<g id="Bildwortmarke">
	<g>
		<path d="M43.392,58.461c1.023,1.619,1.825,1.592,3.035,1.592c-1.001-0.768-1.663-1.75-1.979-2.252l-1.87-2.992
			c-0.183-0.924-0.661-1.788-1.376-2.431c0.24-0.091,0.44-0.187,0.561-0.278c-1.221,0-2.431-0.62-3.097-0.62
			c-0.428,0-0.704,0.256-0.704,0.594c0.028,0.377,0.416,0.76,1.132,0.76c0.163,0,0.37-0.021,0.598-0.059
			c0.388,0.541,0.701,1.03,0.701,1.727c0,1.31-1.566,2.331-3.147,2.331c-0.089,0-0.174-0.003-0.264-0.01
			c-0.144-0.324-0.62-0.87-0.62-1.49c0-1.041,0.679-1.891,0.679-2.922c0-0.641-0.312-1.037-0.433-1.202
			c0.194-0.18,0.407-0.402,0.456-0.553c-0.113,0.048-0.246,0.055-0.442,0.055c-0.758,0-1.375-0.198-1.978-0.198
			c-0.343,0-0.436,0.106-0.436,0.207c0,0.037,0.006,0.075,0.016,0.093c-0.128-0.051-0.249-0.083-0.392-0.11
			c-0.177-0.034-0.369-0.051-0.573-0.051c-0.732,0-0.992,0.307-0.992,0.57c0,0.223,0.175,0.629,0.374,0.938
			c0.286-0.143,0.628-0.241,0.785-0.241c0.388,0,0.734,0.37,0.917,0.809c-0.261,0.031-0.312,0.043-0.576,0.043
			c-0.712,0-1.197-0.255-1.297-0.255c-0.01,0-0.029,0.005-0.029,0.021c0,0.1,0.202,0.364,0.601,0.51
			c0.524,0.192,1.311,0.272,1.442,0.293c0,0.023-0.133,0.271-0.282,0.319c-0.032,0.01-0.056,0.011-0.093,0.004
			c-0.548-0.108-0.701-0.154-1.396-0.419c-0.021-0.008-0.034,0.005-0.034,0.028c0,0.275,0.712,0.882,1.35,1.114
			c-0.533,0.68-1.198,1.376-1.512,2.437c-0.089,0.007-0.175,0.01-0.264,0.01c-1.581,0-3.148-1.021-3.148-2.331
			c0-0.698,0.313-1.186,0.702-1.727c0.228,0.038,0.435,0.059,0.598,0.059c0.717,0,1.105-0.384,1.133-0.76
			c0-0.338-0.275-0.594-0.705-0.594c-0.666,0-1.875,0.62-3.097,0.62c0.121,0.091,0.321,0.187,0.561,0.278
			c-0.715,0.643-1.193,1.506-1.376,2.431l-1.87,2.992c-0.315,0.502-0.979,1.484-1.98,2.252c1.21,0,2.012,0.027,3.036-1.592
			l0.958-1.534c0.071,0.199,0.159,0.393,0.261,0.583l-1.907,3.051c-0.317,0.506-0.975,1.48-1.98,2.252
			c1.21,0,2.012,0.028,3.036-1.59l1.642-2.628c0.123,0.131,0.252,0.259,0.388,0.381l-2.316,3.708
			c-0.318,0.507-0.972,1.478-1.979,2.25c1.21,0,2.012,0.029,3.036-1.59l2.258-3.615c0.149,0.094,0.301,0.186,0.458,0.271
			l-2.756,4.41c-0.318,0.508-0.972,1.477-1.979,2.25c1.21,0,2.012,0.028,3.036-1.59l2.838-4.543
			c0.168,0.064,0.338,0.126,0.512,0.182l-3.207,5.133c-0.313,0.5-0.983,1.486-1.979,2.25c1.209,0,2.012,0.027,3.035-1.59
			l3.418-5.471c0.035,0.006,0.069,0.012,0.103,0.019c0.093,0.296,0.158,0.571,0.158,0.847c0,1.719-1.128,3.237-2.482,4.409
			c0.086,0.038,0.237,0.051,0.377,0.051c0.279,0,0.46-0.015,0.586-0.037c-0.314,0.713-0.987,1.634-1.328,2.11
			c-0.443-0.08-1.088-0.143-1.51-0.143c-0.442,0-0.492,0.259-0.492,0.489c0,0.401,0.188,0.721,0.406,0.898
			c0.082-0.205,0.247-0.479,1.063-0.479c0.016,0,0.044,0.002,0.082,0.005c-0.239,0.266-0.986,0.869-0.986,1.355
			c0,0.322,0.354,0.805,0.819,0.805c-0.028-0.104-0.024-0.199-0.024-0.271c0-0.395,0.349-0.855,0.644-1.177
			c-0.009,0.096-0.004,0.086-0.004,0.197c0,0.932,0.084,1.359,0.675,1.359c0.29,0,0.49-0.159,0.559-0.207
			c-0.384-0.354-0.404-0.631-0.404-1.153c0.001-0.136,0.002-0.269,0.003-0.452c0.001-0.119,0-0.277-0.02-0.392
			c0.212-0.029,0.297-0.029,0.46-0.029c0,0,0.84-0.066,1.042,0.37c0.228-0.209,0.559-0.504,0.559-0.829
			c0-0.215-0.102-0.458-0.535-0.458c-0.164,0-0.679,0.101-1.11,0.101c0.116-0.258,0.631-1.012,1.078-1.559
			c0.067,0.212,0.173,0.441,0.407,0.629c0.032-0.352,0.239-1.465,0.789-2.115c0.064,0.439,0.15,0.891,0.15,1.842
			c0,2.313-0.556,4.022-1.737,4.349c0.154,0.268,0.479,0.508,0.816,0.508c0.432,0,0.667-0.488,0.907-0.949
			c0.125,0.34,0.47,1.174,0.816,1.174c0.346,0,0.691-0.834,0.816-1.174c0.24,0.461,0.475,0.949,0.907,0.949
			c0.337,0,0.663-0.24,0.816-0.508c-1.181-0.326-1.738-2.035-1.738-4.349c0-0.951,0.086-1.402,0.15-1.842
			c0.55,0.65,0.757,1.764,0.789,2.115c0.234-0.188,0.34-0.417,0.408-0.629c0.446,0.547,0.962,1.301,1.078,1.559
			c-0.432,0-0.947-0.101-1.11-0.101c-0.432,0-0.534,0.243-0.534,0.458c0,0.325,0.331,0.62,0.559,0.829
			c0.202-0.437,1.042-0.37,1.042-0.37c0.163,0,0.248,0,0.46,0.029c-0.02,0.114-0.021,0.272-0.02,0.392
			c0.002,0.184,0.002,0.316,0.003,0.452c0,0.522-0.02,0.8-0.403,1.153c0.069,0.048,0.269,0.207,0.559,0.207
			c0.591,0,0.676-0.428,0.676-1.359c0-0.111,0.003-0.102-0.004-0.197c0.294,0.321,0.644,0.782,0.644,1.177
			c0,0.071,0.004,0.167-0.024,0.271c0.466,0,0.819-0.482,0.819-0.805c0-0.486-0.747-1.09-0.986-1.355
			c0.039-0.003,0.066-0.005,0.082-0.005c0.817,0,0.981,0.274,1.063,0.479c0.218-0.178,0.406-0.497,0.406-0.898
			c0-0.23-0.049-0.489-0.491-0.489c-0.422,0-1.067,0.062-1.511,0.143c-0.34-0.477-1.013-1.397-1.328-2.11
			c0.126,0.022,0.308,0.037,0.586,0.037c0.14,0,0.291-0.013,0.377-0.051c-1.354-1.172-2.482-2.69-2.482-4.409
			c0-0.275,0.065-0.551,0.158-0.847c0.034-0.007,0.069-0.013,0.104-0.019l3.417,5.471c1.023,1.617,1.826,1.59,3.035,1.59
			c-0.996-0.764-1.665-1.75-1.978-2.25l-3.208-5.133c0.174-0.056,0.344-0.117,0.512-0.182l2.838,4.543
			c1.023,1.618,1.825,1.59,3.036,1.59c-1.007-0.773-1.661-1.742-1.979-2.25l-2.756-4.41c0.157-0.086,0.31-0.178,0.458-0.271
			l2.259,3.615c1.024,1.619,1.825,1.59,3.035,1.59c-1.006-0.771-1.66-1.743-1.979-2.25l-2.316-3.708
			c0.136-0.122,0.266-0.25,0.388-0.381l1.642,2.628c1.024,1.618,1.825,1.59,3.036,1.59c-1.006-0.771-1.662-1.746-1.98-2.252
			l-1.907-3.051c0.103-0.19,0.19-0.384,0.261-0.583L43.392,58.461z M28.086,54.948c0-1.14,0.829-2.042,1.121-2.295
			c0.07,0.017,0.14,0.034,0.21,0.048c-0.31,0.378-0.857,1.013-0.857,1.853c0,1.668,1.782,3.116,3.8,3.116
			c-0.013,0.143-0.02,0.293-0.02,0.447c0,0.246,0.014,0.475,0.038,0.691C30.095,58.795,28.086,56.943,28.086,54.948z M31.178,68.622
			l-0.013,0.039h0.04c0.641,0,0.953-0.046,1.159-0.076c0.108-0.014,0.186-0.025,0.27-0.025c0.166,0,0.292,0.016,0.292,0.219
			c0,0.138-0.161,0.354-0.316,0.48c-0.236-0.223-0.563-0.267-1.043-0.267c-0.225,0-0.518,0.04-0.676,0.062l-0.025,0.003
			l-0.028,0.004l0.009,0.075c0.019,0.133,0.042,0.298,0.042,0.521l-0.003,0.202l-0.002,0.251c0,0.544,0.075,0.854,0.265,1.089
			c-0.049,0.019-0.129,0.033-0.181,0.033c-0.337,0-0.436-0.147-0.436-1.121c0-0.195-0.011-0.379-0.018-0.501l-0.009-0.181
			l-0.043,0.033c-0.502,0.383-1.019,1.066-1.05,1.578c-0.151-0.098-0.315-0.316-0.315-0.484c0-0.279,0.42-0.698,0.905-1.184
			l0.28-0.279l0.035-0.036l-0.092-0.022c-0.104-0.027-0.298-0.076-0.463-0.076c-0.545,0-0.886,0.103-1.097,0.332
			c-0.075-0.109-0.139-0.364-0.139-0.514c0-0.097,0.019-0.165,0.058-0.204c0.048-0.046,0.122-0.046,0.187-0.046h0.014
			c0.6,0,1.318,0.108,1.598,0.153l0.017,0.004l0.011-0.014c0.048-0.065,1.193-1.59,1.49-2.398c0.068-0.025,0.128-0.045,0.247-0.045
			c0.226,0,0.288,0.152,0.353,0.385C31.786,67.481,31.34,68.157,31.178,68.622z M37.352,66.227c0.12,0,0.178,0.02,0.248,0.045
			c0.297,0.809,1.442,2.333,1.49,2.398l0.011,0.014l0.017-0.004c0.28-0.045,0.997-0.153,1.598-0.153h0.013
			c0.065,0,0.139,0,0.187,0.046c0.039,0.039,0.058,0.107,0.058,0.204c0,0.149-0.063,0.404-0.139,0.514
			c-0.21-0.229-0.551-0.332-1.097-0.332c-0.165,0-0.358,0.049-0.463,0.076l-0.043,0.01l-0.049,0.013l0.315,0.315
			c0.486,0.485,0.906,0.904,0.906,1.184c0,0.168-0.164,0.387-0.315,0.484c-0.032-0.512-0.549-1.195-1.051-1.578l-0.043-0.032
			l-0.008,0.18c-0.007,0.122-0.018,0.306-0.018,0.501c0,0.974-0.099,1.121-0.436,1.121c-0.052,0-0.131-0.015-0.18-0.033
			c0.19-0.234,0.265-0.545,0.265-1.089l-0.003-0.251l-0.002-0.202c0-0.223,0.023-0.388,0.041-0.521l0.01-0.075l-0.053-0.007
			c-0.158-0.022-0.451-0.062-0.675-0.062c-0.48,0-0.807,0.044-1.043,0.267c-0.156-0.126-0.316-0.343-0.316-0.48
			c0-0.203,0.127-0.219,0.292-0.219c0.084,0,0.162,0.012,0.27,0.025c0.207,0.03,0.518,0.076,1.159,0.076h0.039l-0.012-0.039
			c-0.163-0.465-0.608-1.141-1.324-2.01C37.064,66.379,37.127,66.227,37.352,66.227z M34.702,52.927
			c-0.071-0.296-0.223-0.6-0.416-0.829c-0.176-0.207-0.467-0.454-0.858-0.454c-0.179,0-0.479,0.083-0.67,0.164
			c-0.072-0.129-0.211-0.443-0.211-0.584c0-0.145,0.246-0.292,0.714-0.292c1.032,0,1.649,0.467,1.649,1.249
			C34.909,52.455,34.8,52.705,34.702,52.927z M35.165,51.91c-0.037-0.221-0.121-0.421-0.249-0.592
			c0.006-0.202,0.089-0.395,0.415-0.236c-0.176,0.18-0.04,0.499-0.04,0.499s0.36-0.167,0.286-0.404
			C36.11,51.303,35.726,52.02,35.165,51.91z M37.173,58.809c0.027-0.224,0.043-0.455,0.043-0.691c0-0.129,0.001-0.278-0.015-0.448
			c1.993-0.028,3.741-1.464,3.741-3.115c0-0.84-0.548-1.475-0.857-1.853c0.07-0.015,0.14-0.031,0.21-0.048
			c0.292,0.254,1.121,1.156,1.121,2.295C41.415,56.929,39.435,58.768,37.173,58.809z"/>
	</g>
	<polygon fill="#FFCC00" points="54.5,91.47 56,91.47 56,111.47 52.5,111.47 52.5,91.47 	"/>
	<polygon fill="#FF0000" points="54.5,71.37 56,71.37 56,91.47 52.5,91.47 52.5,71.37 	"/>
	<polygon points="56,51.471 56,71.47 54.5,71.47 52.5,71.47 52.5,51.471 	"/>
</g>
<g id="Name">
	<path d="M67.748,53.354c0,0.286-0.036,0.535-0.107,0.75c-0.071,0.214-0.169,0.399-0.291,0.553c-0.123,0.155-0.266,0.28-0.428,0.375
		c-0.163,0.095-0.331,0.167-0.506,0.214v0.024c0.214,0.04,0.414,0.115,0.601,0.226c0.187,0.111,0.349,0.25,0.488,0.417
		c0.139,0.167,0.25,0.363,0.333,0.589c0.083,0.226,0.125,0.474,0.125,0.744c0,0.325-0.056,0.623-0.167,0.893
		s-0.284,0.504-0.518,0.702c-0.234,0.198-0.53,0.353-0.886,0.464c-0.357,0.111-0.781,0.167-1.273,0.167H63.44v-8.211h1.583
		c0.484,0,0.898,0.05,1.244,0.149c0.345,0.099,0.629,0.24,0.851,0.423c0.222,0.182,0.383,0.403,0.482,0.66
		C67.698,52.749,67.748,53.036,67.748,53.354z M66.701,53.389c0-0.381-0.135-0.694-0.405-0.94c-0.27-0.246-0.694-0.369-1.273-0.369
		h-0.547v2.832h0.535c0.555,0,0.976-0.135,1.261-0.405S66.701,53.865,66.701,53.389z M66.855,57.174
		c0-0.444-0.145-0.795-0.434-1.053c-0.29-0.258-0.704-0.387-1.244-0.387h-0.702v2.88h0.643c0.611,0,1.053-0.121,1.327-0.363
		C66.719,58.009,66.855,57.65,66.855,57.174z M73.234,59.47h-0.881v-0.643h-0.024c-0.024,0.048-0.075,0.117-0.155,0.208
		c-0.079,0.091-0.18,0.179-0.303,0.262c-0.123,0.083-0.272,0.157-0.446,0.22c-0.174,0.064-0.369,0.095-0.583,0.095
		c-0.254,0-0.482-0.038-0.684-0.113c-0.202-0.075-0.375-0.196-0.518-0.363s-0.252-0.383-0.327-0.649
		c-0.075-0.266-0.113-0.593-0.113-0.982v-3.749h0.964v3.677c0,0.476,0.077,0.815,0.232,1.017c0.155,0.202,0.395,0.303,0.72,0.303
		c0.278,0,0.512-0.069,0.702-0.208c0.19-0.139,0.341-0.276,0.452-0.41v-4.379h0.964V59.47z M77.827,59.47v-3.677
		c0-0.484-0.081-0.831-0.244-1.041c-0.163-0.21-0.411-0.315-0.744-0.315c-0.286,0-0.524,0.071-0.714,0.214s-0.341,0.282-0.452,0.417
		v4.403h-0.964v-5.712h0.881v0.643h0.024c0.024-0.048,0.075-0.117,0.155-0.208c0.079-0.091,0.183-0.179,0.309-0.262
		c0.127-0.083,0.278-0.157,0.452-0.22s0.373-0.095,0.595-0.095c0.254,0,0.484,0.038,0.69,0.113c0.206,0.075,0.381,0.196,0.524,0.363
		c0.143,0.167,0.254,0.383,0.333,0.649c0.079,0.266,0.119,0.593,0.119,0.982v3.748H77.827z M79.969,56.698
		c0-0.579,0.075-1.063,0.226-1.452c0.151-0.389,0.345-0.702,0.583-0.94c0.238-0.238,0.508-0.407,0.809-0.506
		c0.301-0.099,0.603-0.149,0.904-0.149c0.182,0,0.341,0.014,0.476,0.042c0.135,0.028,0.246,0.061,0.333,0.101v-2.737l0.964-0.107
		v8.52h-0.881v-0.607h-0.024c-0.024,0.048-0.067,0.113-0.131,0.196c-0.064,0.083-0.151,0.167-0.262,0.25
		c-0.111,0.083-0.25,0.155-0.417,0.214c-0.167,0.06-0.361,0.089-0.583,0.089c-0.27,0-0.526-0.054-0.767-0.161
		c-0.242-0.107-0.454-0.278-0.637-0.512c-0.183-0.234-0.327-0.535-0.434-0.904C80.023,57.667,79.969,57.221,79.969,56.698z
		 M82.23,58.756c0.151,0,0.286-0.02,0.405-0.06c0.119-0.04,0.222-0.089,0.309-0.149c0.087-0.06,0.161-0.121,0.22-0.184
		c0.06-0.064,0.105-0.119,0.137-0.167v-3.522c-0.087-0.056-0.188-0.103-0.303-0.143c-0.115-0.04-0.26-0.059-0.434-0.059
		c-0.222,0-0.43,0.038-0.625,0.113c-0.194,0.075-0.363,0.2-0.506,0.375s-0.256,0.401-0.339,0.678
		c-0.083,0.278-0.125,0.619-0.125,1.023c0,0.397,0.034,0.728,0.101,0.994c0.067,0.266,0.161,0.48,0.28,0.643
		c0.119,0.163,0.254,0.28,0.405,0.351C81.905,58.721,82.064,58.756,82.23,58.756z M89.406,55.686c0,0.246-0.008,0.458-0.024,0.637
		s-0.032,0.335-0.048,0.47h-2.916c0.032,0.674,0.177,1.17,0.434,1.487c0.258,0.317,0.629,0.476,1.113,0.476
		c0.167,0,0.317-0.02,0.452-0.06c0.135-0.04,0.252-0.087,0.351-0.143c0.099-0.056,0.182-0.111,0.25-0.167
		c0.067-0.056,0.117-0.099,0.149-0.131l0.357,0.678c-0.04,0.04-0.099,0.097-0.178,0.173c-0.079,0.075-0.186,0.151-0.321,0.226
		c-0.135,0.075-0.301,0.141-0.5,0.196c-0.198,0.056-0.432,0.083-0.702,0.083c-0.357,0-0.68-0.06-0.97-0.179
		c-0.29-0.119-0.535-0.304-0.738-0.553c-0.202-0.25-0.359-0.567-0.47-0.952c-0.111-0.385-0.167-0.847-0.167-1.386
		c0-0.508,0.057-0.946,0.173-1.315c0.115-0.369,0.272-0.672,0.47-0.91c0.198-0.238,0.428-0.415,0.69-0.53
		c0.262-0.115,0.543-0.172,0.845-0.172c0.547,0,0.976,0.172,1.285,0.518C89.251,54.478,89.406,54.996,89.406,55.686z M87.597,54.401
		c-0.341,0-0.615,0.143-0.821,0.428s-0.325,0.698-0.357,1.238h2.083c0.008-0.04,0.014-0.097,0.018-0.173
		c0.004-0.075,0.006-0.157,0.006-0.244c0-0.397-0.079-0.704-0.238-0.922C88.129,54.51,87.899,54.401,87.597,54.401z M93.154,54.913
		c-0.063-0.071-0.179-0.169-0.345-0.292c-0.167-0.123-0.385-0.184-0.655-0.184c-0.254,0-0.448,0.06-0.583,0.179
		s-0.202,0.262-0.202,0.428c0,0.214,0.062,0.391,0.185,0.53c0.123,0.139,0.311,0.288,0.565,0.446l0.357,0.214
		c0.389,0.23,0.694,0.478,0.916,0.744c0.222,0.266,0.333,0.609,0.333,1.029c0,0.452-0.157,0.833-0.47,1.142
		c-0.313,0.309-0.764,0.464-1.351,0.464c-0.23,0-0.432-0.024-0.607-0.071s-0.327-0.103-0.458-0.167
		c-0.131-0.063-0.24-0.133-0.327-0.208c-0.087-0.075-0.159-0.145-0.214-0.208l0.464-0.762c0.048,0.048,0.105,0.103,0.173,0.167
		c0.067,0.063,0.149,0.125,0.244,0.184s0.202,0.109,0.321,0.149c0.119,0.04,0.258,0.06,0.417,0.06c0.286,0,0.504-0.064,0.655-0.19
		c0.151-0.127,0.226-0.282,0.226-0.464c0-0.135-0.018-0.252-0.053-0.351c-0.036-0.099-0.089-0.188-0.161-0.268
		c-0.071-0.079-0.159-0.155-0.262-0.226c-0.103-0.071-0.222-0.151-0.357-0.238l-0.357-0.226c-0.357-0.23-0.637-0.472-0.839-0.726
		c-0.202-0.254-0.303-0.579-0.303-0.976c0-0.214,0.042-0.411,0.125-0.589c0.083-0.178,0.2-0.333,0.351-0.464
		c0.151-0.131,0.327-0.234,0.53-0.309c0.202-0.075,0.418-0.113,0.648-0.113c0.222,0,0.412,0.022,0.571,0.065
		c0.159,0.044,0.296,0.099,0.411,0.167c0.115,0.068,0.21,0.135,0.286,0.202c0.075,0.068,0.137,0.125,0.184,0.173L93.154,54.913z
		 M97.855,59.47v-3.677c0-0.468-0.067-0.805-0.202-1.012c-0.135-0.206-0.353-0.309-0.655-0.309c-0.159,0-0.299,0.02-0.422,0.059
		c-0.123,0.04-0.232,0.089-0.327,0.149c-0.095,0.06-0.178,0.125-0.25,0.196c-0.071,0.071-0.131,0.135-0.179,0.19v4.403h-0.964
		v-5.712h0.881v0.643h0.024c0.04-0.064,0.099-0.141,0.179-0.232c0.079-0.091,0.178-0.179,0.298-0.262
		c0.119-0.083,0.258-0.153,0.416-0.208s0.337-0.083,0.535-0.083c0.651,0,1.111,0.254,1.38,0.762
		c0.056-0.079,0.131-0.165,0.226-0.256c0.095-0.091,0.206-0.174,0.333-0.25c0.127-0.075,0.27-0.137,0.428-0.184
		s0.333-0.071,0.524-0.071c1.158,0,1.737,0.674,1.737,2.023v3.832h-0.964v-3.677c0-0.468-0.083-0.805-0.25-1.012
		c-0.167-0.206-0.412-0.309-0.738-0.309c-0.27,0-0.494,0.065-0.672,0.196c-0.179,0.131-0.319,0.256-0.423,0.375
		c0.016,0.087,0.028,0.181,0.036,0.28c0.008,0.099,0.012,0.204,0.012,0.315v3.832H97.855z M104.221,59.47h-0.964v-5.712h0.964V59.47
		z M103.745,52.378c-0.198,0-0.357-0.063-0.476-0.19c-0.119-0.127-0.179-0.293-0.179-0.5c0-0.198,0.06-0.361,0.179-0.488
		c0.119-0.127,0.278-0.19,0.476-0.19c0.19,0,0.345,0.063,0.464,0.19c0.119,0.127,0.179,0.29,0.179,0.488
		c0,0.206-0.06,0.373-0.179,0.5C104.09,52.314,103.936,52.378,103.745,52.378z M108.815,59.47v-3.677
		c0-0.484-0.081-0.831-0.244-1.041c-0.163-0.21-0.411-0.315-0.744-0.315c-0.286,0-0.524,0.071-0.714,0.214s-0.341,0.282-0.452,0.417
		v4.403h-0.964v-5.712h0.881v0.643h0.024c0.024-0.048,0.075-0.117,0.155-0.208c0.079-0.091,0.183-0.179,0.309-0.262
		c0.127-0.083,0.278-0.157,0.452-0.22s0.373-0.095,0.595-0.095c0.254,0,0.484,0.038,0.69,0.113c0.206,0.075,0.381,0.196,0.524,0.363
		s0.254,0.383,0.333,0.649c0.079,0.266,0.119,0.593,0.119,0.982v3.748H108.815z M112.182,59.47h-0.964v-5.712h0.964V59.47z
		 M111.706,52.378c-0.198,0-0.357-0.063-0.476-0.19c-0.119-0.127-0.178-0.293-0.178-0.5c0-0.198,0.059-0.361,0.178-0.488
		c0.119-0.127,0.278-0.19,0.476-0.19c0.19,0,0.345,0.063,0.464,0.19c0.119,0.127,0.178,0.29,0.178,0.488
		c0,0.206-0.06,0.373-0.178,0.5C112.052,52.314,111.897,52.378,111.706,52.378z M116.121,54.913
		c-0.063-0.071-0.178-0.169-0.345-0.292c-0.167-0.123-0.385-0.184-0.655-0.184c-0.254,0-0.448,0.06-0.583,0.179
		c-0.135,0.119-0.202,0.262-0.202,0.428c0,0.214,0.062,0.391,0.185,0.53c0.123,0.139,0.311,0.288,0.565,0.446l0.357,0.214
		c0.389,0.23,0.694,0.478,0.916,0.744c0.222,0.266,0.333,0.609,0.333,1.029c0,0.452-0.157,0.833-0.47,1.142
		c-0.313,0.309-0.764,0.464-1.351,0.464c-0.23,0-0.432-0.024-0.607-0.071s-0.327-0.103-0.458-0.167
		c-0.131-0.063-0.24-0.133-0.327-0.208c-0.087-0.075-0.159-0.145-0.214-0.208l0.464-0.762c0.048,0.048,0.105,0.103,0.173,0.167
		c0.067,0.063,0.149,0.125,0.244,0.184c0.095,0.06,0.202,0.109,0.321,0.149c0.119,0.04,0.258,0.06,0.416,0.06
		c0.286,0,0.504-0.064,0.655-0.19s0.226-0.282,0.226-0.464c0-0.135-0.018-0.252-0.053-0.351c-0.036-0.099-0.089-0.188-0.161-0.268
		c-0.071-0.079-0.159-0.155-0.262-0.226c-0.103-0.071-0.222-0.151-0.357-0.238l-0.357-0.226c-0.357-0.23-0.637-0.472-0.839-0.726
		c-0.202-0.254-0.303-0.579-0.303-0.976c0-0.214,0.042-0.411,0.125-0.589c0.083-0.178,0.2-0.333,0.351-0.464
		c0.151-0.131,0.327-0.234,0.53-0.309c0.202-0.075,0.418-0.113,0.648-0.113c0.222,0,0.412,0.022,0.571,0.065
		c0.159,0.044,0.296,0.099,0.411,0.167c0.115,0.068,0.21,0.135,0.286,0.202c0.075,0.068,0.137,0.125,0.184,0.173L116.121,54.913z
		 M120.263,54.544h-1.249v3.165c0,0.405,0.052,0.68,0.155,0.827c0.103,0.147,0.278,0.22,0.524,0.22c0.143,0,0.266-0.02,0.369-0.06
		c0.103-0.04,0.179-0.075,0.226-0.107l0.131,0.774c-0.04,0.032-0.135,0.081-0.286,0.149c-0.151,0.067-0.353,0.101-0.607,0.101
		c-0.492,0-0.861-0.137-1.107-0.411c-0.246-0.274-0.369-0.728-0.369-1.362v-3.296h-0.69v-0.643l0.69-0.143l0.107-1.595h0.857v1.595
		h1.368L120.263,54.544z M124.939,55.686c0,0.246-0.008,0.458-0.024,0.637s-0.032,0.335-0.048,0.47h-2.915
		c0.032,0.674,0.176,1.17,0.434,1.487c0.258,0.317,0.629,0.476,1.113,0.476c0.167,0,0.317-0.02,0.452-0.06
		c0.135-0.04,0.252-0.087,0.351-0.143c0.099-0.056,0.182-0.111,0.25-0.167c0.067-0.056,0.117-0.099,0.149-0.131l0.357,0.678
		c-0.04,0.04-0.099,0.097-0.178,0.173c-0.079,0.075-0.186,0.151-0.321,0.226c-0.135,0.075-0.301,0.141-0.5,0.196
		s-0.432,0.083-0.702,0.083c-0.357,0-0.68-0.06-0.97-0.179c-0.29-0.119-0.535-0.304-0.738-0.553c-0.202-0.25-0.359-0.567-0.47-0.952
		c-0.111-0.385-0.167-0.847-0.167-1.386c0-0.508,0.058-0.946,0.173-1.315c0.115-0.369,0.272-0.672,0.47-0.91
		c0.198-0.238,0.428-0.415,0.69-0.53c0.262-0.115,0.543-0.172,0.845-0.172c0.547,0,0.976,0.172,1.285,0.518
		S124.939,54.996,124.939,55.686z M123.131,54.401c-0.341,0-0.615,0.143-0.821,0.428c-0.206,0.286-0.325,0.698-0.357,1.238h2.082
		c0.008-0.04,0.014-0.097,0.018-0.173c0.004-0.075,0.006-0.157,0.006-0.244c0-0.397-0.079-0.704-0.238-0.922
		C123.662,54.51,123.432,54.401,123.131,54.401z M128.735,54.603c-0.024-0.016-0.075-0.036-0.155-0.059s-0.186-0.036-0.321-0.036
		c-0.301,0-0.537,0.081-0.708,0.244c-0.171,0.163-0.292,0.339-0.363,0.53v4.189h-0.964v-5.712h0.881v0.773h0.024
		c0.04-0.111,0.091-0.22,0.155-0.327c0.063-0.107,0.143-0.202,0.238-0.286c0.095-0.083,0.208-0.149,0.339-0.196
		c0.131-0.048,0.288-0.071,0.47-0.071c0.135,0,0.244,0.012,0.327,0.036s0.149,0.044,0.196,0.059L128.735,54.603z M130.651,59.47
		h-0.964v-5.712h0.964V59.47z M130.175,52.378c-0.198,0-0.357-0.063-0.476-0.19s-0.178-0.293-0.178-0.5
		c0-0.198,0.059-0.361,0.178-0.488s0.278-0.19,0.476-0.19c0.19,0,0.345,0.063,0.464,0.19c0.119,0.127,0.178,0.29,0.178,0.488
		c0,0.206-0.06,0.373-0.178,0.5C130.52,52.314,130.366,52.378,130.175,52.378z M136.125,59.47h-0.881v-0.643h-0.024
		c-0.024,0.048-0.075,0.117-0.155,0.208c-0.079,0.091-0.18,0.179-0.303,0.262c-0.123,0.083-0.272,0.157-0.446,0.22
		c-0.174,0.064-0.369,0.095-0.583,0.095c-0.254,0-0.482-0.038-0.684-0.113c-0.202-0.075-0.375-0.196-0.518-0.363
		c-0.143-0.167-0.252-0.383-0.327-0.649c-0.075-0.266-0.113-0.593-0.113-0.982v-3.749h0.964v3.677c0,0.476,0.077,0.815,0.232,1.017
		c0.155,0.202,0.395,0.303,0.72,0.303c0.278,0,0.512-0.069,0.702-0.208c0.19-0.139,0.341-0.276,0.452-0.41v-4.379h0.964V59.47z
		 M140.6,59.47v-3.677c0-0.468-0.067-0.805-0.202-1.012s-0.353-0.309-0.654-0.309c-0.159,0-0.299,0.02-0.422,0.059
		c-0.123,0.04-0.232,0.089-0.327,0.149s-0.178,0.125-0.25,0.196c-0.071,0.071-0.131,0.135-0.178,0.19v4.403h-0.964v-5.712h0.881
		v0.643h0.024c0.04-0.064,0.099-0.141,0.178-0.232c0.079-0.091,0.179-0.179,0.298-0.262c0.119-0.083,0.258-0.153,0.417-0.208
		c0.159-0.056,0.337-0.083,0.536-0.083c0.65,0,1.111,0.254,1.38,0.762c0.056-0.079,0.131-0.165,0.226-0.256
		c0.095-0.091,0.206-0.174,0.333-0.25c0.127-0.075,0.27-0.137,0.428-0.184c0.159-0.048,0.333-0.071,0.524-0.071
		c1.158,0,1.737,0.674,1.737,2.023v3.832h-0.964v-3.677c0-0.468-0.083-0.805-0.25-1.012s-0.413-0.309-0.738-0.309
		c-0.27,0-0.494,0.065-0.672,0.196c-0.178,0.131-0.319,0.256-0.422,0.375c0.016,0.087,0.028,0.181,0.036,0.28
		c0.008,0.099,0.012,0.204,0.012,0.315v3.832H140.6z M65.642,66.544h-1.166v4.927h-0.964v-4.927h-0.69v-0.643l0.69-0.131v-1.142
		c0-0.309,0.044-0.575,0.131-0.797c0.087-0.222,0.202-0.405,0.345-0.547c0.143-0.143,0.309-0.246,0.5-0.309
		c0.19-0.064,0.393-0.095,0.607-0.095c0.206,0,0.381,0.028,0.524,0.083c0.143,0.056,0.238,0.099,0.286,0.131l-0.202,0.797
		c-0.048-0.032-0.115-0.065-0.202-0.101c-0.087-0.036-0.194-0.053-0.321-0.053c-0.23,0-0.405,0.071-0.524,0.214
		c-0.119,0.143-0.178,0.405-0.178,0.785v1.023h1.285L65.642,66.544z M70.592,71.47h-0.881v-0.643h-0.024
		c-0.024,0.048-0.075,0.117-0.155,0.208c-0.079,0.091-0.18,0.179-0.303,0.262c-0.123,0.083-0.272,0.157-0.446,0.22
		s-0.369,0.095-0.583,0.095c-0.254,0-0.482-0.038-0.684-0.113c-0.202-0.075-0.375-0.196-0.518-0.363s-0.252-0.383-0.327-0.649
		c-0.075-0.266-0.113-0.593-0.113-0.982v-3.748h0.964v3.677c0,0.476,0.077,0.815,0.232,1.018c0.155,0.202,0.395,0.303,0.72,0.303
		c0.278,0,0.512-0.069,0.702-0.208c0.19-0.139,0.341-0.276,0.452-0.41v-4.379h0.964V71.47z M68.224,64.116
		c0,0.183-0.055,0.329-0.167,0.44c-0.111,0.111-0.246,0.167-0.405,0.167s-0.294-0.055-0.405-0.167
		c-0.111-0.111-0.167-0.258-0.167-0.44c0-0.182,0.055-0.329,0.167-0.44s0.246-0.167,0.405-0.167s0.293,0.056,0.405,0.167
		C68.168,63.787,68.224,63.934,68.224,64.116z M70.057,64.116c0,0.183-0.056,0.329-0.167,0.44c-0.111,0.111-0.246,0.167-0.405,0.167
		c-0.159,0-0.293-0.055-0.405-0.167c-0.111-0.111-0.167-0.258-0.167-0.44c0-0.182,0.056-0.329,0.167-0.44s0.246-0.167,0.405-0.167
		c0.159,0,0.294,0.056,0.405,0.167S70.057,63.934,70.057,64.116z M74.578,66.603c-0.024-0.016-0.075-0.036-0.155-0.06
		c-0.079-0.024-0.186-0.036-0.321-0.036c-0.301,0-0.537,0.081-0.708,0.244c-0.171,0.163-0.292,0.339-0.363,0.53v4.189h-0.964v-5.712
		h0.881v0.773h0.024c0.04-0.111,0.091-0.22,0.155-0.327s0.143-0.202,0.238-0.286s0.208-0.149,0.339-0.196
		c0.131-0.048,0.288-0.071,0.47-0.071c0.135,0,0.244,0.012,0.327,0.036c0.083,0.024,0.149,0.044,0.196,0.06L74.578,66.603z
		 M77.982,71.47v-8.211h1.547c0.666,0,1.247,0.071,1.743,0.214c0.496,0.143,0.908,0.369,1.238,0.678
		c0.329,0.309,0.573,0.712,0.732,1.208c0.159,0.496,0.238,1.097,0.238,1.803c0,0.754-0.095,1.402-0.286,1.946
		c-0.19,0.544-0.46,0.99-0.809,1.339s-0.776,0.607-1.279,0.773c-0.504,0.167-1.069,0.25-1.696,0.25H77.982z M79.017,64.08v6.533
		h0.393c0.476,0,0.896-0.062,1.261-0.185c0.365-0.123,0.674-0.321,0.928-0.595s0.446-0.631,0.577-1.071
		c0.131-0.44,0.196-0.974,0.196-1.601c0-0.579-0.063-1.065-0.19-1.458s-0.311-0.71-0.553-0.952c-0.242-0.242-0.54-0.414-0.893-0.518
		c-0.353-0.103-0.756-0.155-1.208-0.155H79.017z M85.741,71.47h-0.964v-5.712h0.964V71.47z M85.265,64.378
		c-0.198,0-0.357-0.063-0.476-0.19c-0.119-0.127-0.179-0.293-0.179-0.5c0-0.198,0.06-0.361,0.179-0.488
		c0.119-0.127,0.278-0.19,0.476-0.19c0.19,0,0.345,0.063,0.464,0.19c0.119,0.127,0.179,0.29,0.179,0.488
		c0,0.206-0.06,0.373-0.179,0.5C85.61,64.314,85.455,64.378,85.265,64.378z M91.31,66.508h-0.714
		c0.183,0.301,0.274,0.643,0.274,1.023c0,0.301-0.05,0.573-0.149,0.815c-0.099,0.242-0.238,0.446-0.417,0.613
		c-0.178,0.167-0.389,0.294-0.631,0.381c-0.242,0.087-0.502,0.131-0.779,0.131c-0.056,0-0.107,0-0.155,0s-0.099-0.004-0.155-0.012
		c-0.095,0.04-0.194,0.103-0.298,0.19c-0.103,0.087-0.155,0.202-0.155,0.345c0,0.119,0.046,0.216,0.137,0.292
		c0.091,0.075,0.24,0.113,0.446,0.113h0.726c0.27,0,0.52,0.028,0.75,0.083c0.23,0.056,0.43,0.145,0.601,0.268
		c0.17,0.123,0.303,0.28,0.399,0.47s0.143,0.421,0.143,0.69c0,0.309-0.065,0.591-0.196,0.845c-0.131,0.254-0.315,0.472-0.553,0.655
		c-0.238,0.182-0.528,0.325-0.869,0.428c-0.341,0.103-0.722,0.155-1.142,0.155c-0.611,0-1.075-0.133-1.392-0.399
		c-0.317-0.266-0.476-0.649-0.476-1.148c0-0.214,0.038-0.399,0.113-0.553c0.075-0.155,0.165-0.29,0.268-0.405
		c0.103-0.115,0.208-0.206,0.315-0.274c0.107-0.067,0.192-0.121,0.256-0.161V71.03c-0.246-0.182-0.369-0.448-0.369-0.797
		c0-0.151,0.03-0.282,0.089-0.393c0.06-0.111,0.127-0.202,0.202-0.274c0.075-0.071,0.151-0.129,0.226-0.173
		c0.075-0.044,0.133-0.073,0.172-0.089v-0.024c-0.293-0.135-0.529-0.347-0.708-0.637c-0.178-0.289-0.268-0.66-0.268-1.113
		c0-0.317,0.052-0.597,0.155-0.839c0.103-0.242,0.242-0.442,0.417-0.601s0.379-0.278,0.613-0.357
		c0.234-0.079,0.486-0.119,0.756-0.119s0.524,0.048,0.762,0.143h1.737L91.31,66.508z M88.656,71.292
		c-0.167,0-0.313-0.012-0.44-0.036c-0.071,0.04-0.141,0.087-0.208,0.143c-0.067,0.055-0.129,0.123-0.184,0.202
		c-0.056,0.079-0.101,0.173-0.137,0.28c-0.036,0.107-0.054,0.232-0.054,0.375c0,0.611,0.337,0.916,1.011,0.916
		c0.579,0,1.007-0.113,1.285-0.339c0.278-0.226,0.416-0.486,0.416-0.78c0-0.278-0.087-0.474-0.262-0.589
		c-0.174-0.115-0.409-0.173-0.702-0.173H88.656z M89.93,67.531c0-0.413-0.097-0.706-0.292-0.881
		c-0.194-0.174-0.423-0.262-0.684-0.262c-0.278,0-0.516,0.087-0.714,0.262c-0.198,0.174-0.298,0.468-0.298,0.881
		c0,0.412,0.099,0.706,0.298,0.881c0.198,0.174,0.428,0.262,0.69,0.262c0.278,0,0.514-0.087,0.708-0.262
		C89.832,68.237,89.93,67.944,89.93,67.531z M93.369,71.47h-0.964v-5.712h0.964V71.47z M92.893,64.378
		c-0.198,0-0.357-0.063-0.476-0.19c-0.119-0.127-0.179-0.293-0.179-0.5c0-0.198,0.06-0.361,0.179-0.488
		c0.119-0.127,0.278-0.19,0.476-0.19c0.19,0,0.345,0.063,0.464,0.19c0.119,0.127,0.178,0.29,0.178,0.488
		c0,0.206-0.06,0.373-0.178,0.5C93.238,64.314,93.083,64.378,92.893,64.378z M97.284,66.544h-1.249v3.165
		c0,0.405,0.052,0.68,0.155,0.827c0.103,0.147,0.278,0.22,0.524,0.22c0.143,0,0.266-0.02,0.369-0.06
		c0.103-0.04,0.179-0.075,0.226-0.107l0.131,0.773c-0.04,0.032-0.135,0.081-0.286,0.149c-0.151,0.067-0.353,0.101-0.607,0.101
		c-0.492,0-0.861-0.137-1.107-0.411c-0.246-0.274-0.369-0.728-0.369-1.363v-3.296h-0.69v-0.643l0.69-0.143l0.107-1.595h0.857v1.595
		h1.368L97.284,66.544z M98.045,70.018c0-0.333,0.063-0.611,0.19-0.833s0.298-0.403,0.512-0.542
		c0.214-0.139,0.466-0.238,0.756-0.298c0.29-0.059,0.597-0.089,0.922-0.089h0.298V67.71c0-0.484-0.085-0.817-0.256-1
		c-0.171-0.182-0.411-0.274-0.72-0.274c-0.286,0-0.524,0.062-0.714,0.184c-0.19,0.123-0.341,0.232-0.452,0.327l-0.405-0.643
		c0.063-0.063,0.145-0.135,0.244-0.214c0.099-0.079,0.22-0.155,0.363-0.226c0.143-0.071,0.305-0.131,0.488-0.179
		c0.182-0.048,0.389-0.071,0.619-0.071c0.587,0,1.031,0.163,1.333,0.488c0.302,0.325,0.452,0.849,0.452,1.571v2.606
		c0,0.246,0.008,0.486,0.024,0.72c0.016,0.234,0.032,0.391,0.048,0.47h-0.916l-0.036-0.631h-0.024
		c-0.032,0.071-0.079,0.153-0.143,0.244c-0.063,0.091-0.143,0.175-0.238,0.25c-0.095,0.075-0.21,0.141-0.345,0.196
		c-0.135,0.055-0.294,0.083-0.476,0.083c-0.214,0-0.415-0.04-0.601-0.119c-0.186-0.079-0.349-0.19-0.488-0.333
		c-0.139-0.143-0.246-0.311-0.321-0.506C98.083,70.461,98.045,70.249,98.045,70.018z M99.771,70.792c0.135,0,0.254-0.02,0.357-0.06
		c0.103-0.04,0.192-0.087,0.268-0.143c0.075-0.055,0.139-0.117,0.19-0.185c0.051-0.067,0.097-0.125,0.137-0.173v-1.261l-0.309,0.012
		c-0.46,0.016-0.809,0.095-1.047,0.238s-0.357,0.373-0.357,0.69c0,0.294,0.067,0.514,0.202,0.66
		C99.346,70.719,99.533,70.792,99.771,70.792z M104.079,70.137c0,0.238,0.034,0.405,0.101,0.5c0.067,0.095,0.184,0.143,0.351,0.143
		c0.087,0,0.161-0.008,0.22-0.024s0.105-0.032,0.137-0.048l0.083,0.714c-0.048,0.024-0.135,0.056-0.262,0.095
		c-0.127,0.04-0.298,0.06-0.512,0.06c-0.325,0-0.587-0.099-0.785-0.298c-0.198-0.198-0.298-0.551-0.298-1.059v-7.164l0.964-0.107
		V70.137z M109.505,67.686c0,0.246-0.008,0.458-0.024,0.637s-0.032,0.335-0.048,0.47h-2.916c0.032,0.674,0.176,1.17,0.434,1.487
		c0.258,0.317,0.629,0.476,1.113,0.476c0.167,0,0.317-0.02,0.452-0.06c0.135-0.04,0.252-0.087,0.351-0.143
		c0.099-0.056,0.182-0.111,0.25-0.167c0.067-0.055,0.117-0.099,0.149-0.131l0.357,0.678c-0.04,0.04-0.099,0.097-0.179,0.173
		c-0.079,0.075-0.186,0.151-0.321,0.226c-0.135,0.075-0.301,0.141-0.5,0.196c-0.198,0.055-0.432,0.083-0.702,0.083
		c-0.357,0-0.68-0.06-0.97-0.178c-0.29-0.119-0.535-0.303-0.738-0.553s-0.359-0.567-0.47-0.952
		c-0.111-0.385-0.167-0.847-0.167-1.386c0-0.508,0.057-0.946,0.173-1.315c0.115-0.369,0.272-0.672,0.47-0.91
		c0.198-0.238,0.428-0.414,0.69-0.53c0.262-0.115,0.543-0.173,0.845-0.173c0.547,0,0.976,0.173,1.285,0.518
		C109.35,66.478,109.505,66.996,109.505,67.686z M107.696,66.401c-0.341,0-0.615,0.143-0.821,0.428s-0.325,0.698-0.357,1.238h2.083
		c0.008-0.04,0.014-0.097,0.018-0.173c0.004-0.075,0.006-0.157,0.006-0.244c0-0.397-0.079-0.704-0.238-0.922
		C108.228,66.51,107.998,66.401,107.696,66.401z M113.254,66.913c-0.063-0.071-0.178-0.169-0.345-0.292
		c-0.167-0.123-0.385-0.184-0.655-0.184c-0.254,0-0.448,0.06-0.583,0.178c-0.135,0.119-0.202,0.262-0.202,0.428
		c0,0.214,0.062,0.391,0.185,0.529c0.123,0.139,0.311,0.288,0.565,0.446l0.357,0.214c0.389,0.23,0.694,0.478,0.916,0.744
		c0.222,0.266,0.333,0.609,0.333,1.029c0,0.452-0.157,0.833-0.47,1.142c-0.313,0.309-0.764,0.464-1.351,0.464
		c-0.23,0-0.432-0.024-0.607-0.071c-0.174-0.048-0.327-0.103-0.458-0.167c-0.131-0.063-0.24-0.133-0.327-0.208
		c-0.087-0.075-0.159-0.145-0.214-0.208l0.464-0.762c0.048,0.048,0.105,0.103,0.173,0.167c0.067,0.063,0.149,0.125,0.244,0.184
		c0.095,0.06,0.202,0.109,0.321,0.149c0.119,0.04,0.258,0.06,0.417,0.06c0.286,0,0.504-0.063,0.654-0.19
		c0.151-0.127,0.226-0.282,0.226-0.464c0-0.135-0.018-0.252-0.053-0.351c-0.036-0.099-0.089-0.188-0.161-0.268
		c-0.071-0.079-0.159-0.155-0.262-0.226c-0.103-0.071-0.222-0.151-0.357-0.238l-0.357-0.226c-0.357-0.23-0.637-0.472-0.839-0.726
		c-0.202-0.254-0.303-0.579-0.303-0.976c0-0.214,0.042-0.411,0.125-0.589c0.083-0.178,0.2-0.333,0.351-0.464
		c0.151-0.131,0.327-0.234,0.53-0.309c0.202-0.075,0.418-0.113,0.648-0.113c0.222,0,0.412,0.022,0.571,0.065
		c0.159,0.044,0.296,0.099,0.411,0.167c0.115,0.067,0.21,0.135,0.286,0.202c0.075,0.068,0.137,0.125,0.184,0.173L113.254,66.913z
		 M67.236,83.47h-0.881v-0.643h-0.024c-0.024,0.048-0.075,0.117-0.155,0.208c-0.079,0.091-0.18,0.179-0.303,0.262
		c-0.123,0.083-0.272,0.157-0.446,0.22s-0.369,0.095-0.583,0.095c-0.254,0-0.482-0.038-0.684-0.113
		c-0.202-0.075-0.375-0.196-0.518-0.363c-0.143-0.167-0.252-0.383-0.327-0.649c-0.075-0.266-0.113-0.593-0.113-0.982v-3.748h0.964
		v3.677c0,0.476,0.077,0.815,0.232,1.018c0.155,0.202,0.395,0.303,0.72,0.303c0.278,0,0.512-0.069,0.702-0.208
		c0.19-0.139,0.341-0.276,0.452-0.41v-4.379h0.964V83.47z M71.83,83.47v-3.677c0-0.484-0.081-0.831-0.244-1.041
		c-0.163-0.21-0.411-0.315-0.744-0.315c-0.286,0-0.524,0.071-0.714,0.214s-0.341,0.282-0.452,0.416v4.403h-0.964v-5.712h0.881v0.643
		h0.024c0.024-0.048,0.075-0.117,0.155-0.208c0.079-0.091,0.182-0.178,0.309-0.262s0.278-0.157,0.452-0.22s0.373-0.095,0.595-0.095
		c0.254,0,0.484,0.038,0.69,0.113c0.206,0.075,0.381,0.196,0.524,0.363c0.143,0.167,0.254,0.383,0.333,0.648
		c0.079,0.266,0.119,0.593,0.119,0.982v3.748H71.83z M73.972,80.698c0-0.579,0.075-1.063,0.226-1.452
		c0.151-0.389,0.345-0.702,0.583-0.94s0.508-0.407,0.809-0.506c0.301-0.099,0.603-0.149,0.904-0.149
		c0.183,0,0.341,0.014,0.476,0.042c0.135,0.028,0.246,0.061,0.333,0.101v-2.737l0.964-0.107v8.52h-0.881v-0.607h-0.024
		c-0.024,0.048-0.067,0.113-0.131,0.196s-0.151,0.167-0.262,0.25c-0.111,0.083-0.25,0.155-0.416,0.214
		c-0.167,0.059-0.361,0.089-0.583,0.089c-0.27,0-0.526-0.053-0.768-0.161c-0.242-0.107-0.454-0.278-0.637-0.512
		c-0.183-0.234-0.327-0.535-0.434-0.904C74.025,81.667,73.972,81.221,73.972,80.698z M76.233,82.756c0.151,0,0.286-0.02,0.405-0.06
		c0.119-0.04,0.222-0.089,0.309-0.149c0.087-0.059,0.161-0.121,0.22-0.184s0.105-0.119,0.137-0.167v-3.522
		c-0.087-0.055-0.188-0.103-0.303-0.143c-0.115-0.04-0.26-0.06-0.434-0.06c-0.222,0-0.43,0.038-0.625,0.113
		c-0.194,0.075-0.363,0.2-0.506,0.375s-0.256,0.401-0.339,0.678c-0.083,0.278-0.125,0.619-0.125,1.023
		c0,0.397,0.034,0.728,0.101,0.994c0.067,0.266,0.161,0.48,0.28,0.643c0.119,0.163,0.254,0.28,0.405,0.351
		C75.907,82.721,76.066,82.756,76.233,82.756z M87.454,75.259l-2.666,8.211h-0.821l-2.594-8.211h1.119l1.571,5.45
		c0.087,0.301,0.165,0.591,0.232,0.869c0.067,0.278,0.105,0.508,0.113,0.69h0.024c0.008-0.183,0.048-0.411,0.119-0.684
		c0.071-0.274,0.151-0.561,0.238-0.863l1.63-5.462H87.454z M91.417,79.686c0,0.246-0.008,0.458-0.024,0.637s-0.032,0.335-0.048,0.47
		H88.43c0.032,0.674,0.176,1.17,0.434,1.487c0.258,0.317,0.629,0.476,1.113,0.476c0.167,0,0.317-0.02,0.452-0.06
		c0.135-0.04,0.252-0.087,0.351-0.143c0.099-0.056,0.182-0.111,0.25-0.167c0.067-0.055,0.117-0.099,0.149-0.131l0.357,0.678
		c-0.04,0.04-0.099,0.097-0.179,0.173c-0.079,0.075-0.186,0.151-0.321,0.226c-0.135,0.075-0.301,0.141-0.5,0.196
		c-0.198,0.055-0.432,0.083-0.702,0.083c-0.357,0-0.68-0.06-0.97-0.178c-0.29-0.119-0.535-0.303-0.738-0.553
		s-0.359-0.567-0.47-0.952c-0.111-0.385-0.167-0.847-0.167-1.386c0-0.508,0.058-0.946,0.173-1.315
		c0.115-0.369,0.272-0.672,0.47-0.91c0.198-0.238,0.428-0.414,0.69-0.53c0.262-0.115,0.543-0.173,0.845-0.173
		c0.547,0,0.976,0.173,1.285,0.518C91.262,78.478,91.417,78.996,91.417,79.686z M89.608,78.401c-0.341,0-0.615,0.143-0.821,0.428
		s-0.325,0.698-0.357,1.238h2.083c0.008-0.04,0.014-0.097,0.018-0.173c0.004-0.075,0.006-0.157,0.006-0.244
		c0-0.397-0.079-0.704-0.238-0.922C90.14,78.51,89.91,78.401,89.608,78.401z M95.213,78.603c-0.024-0.016-0.075-0.036-0.155-0.06
		c-0.079-0.024-0.186-0.036-0.321-0.036c-0.301,0-0.537,0.081-0.708,0.244c-0.171,0.163-0.292,0.339-0.363,0.53v4.189h-0.964v-5.712
		h0.881v0.773h0.024c0.04-0.111,0.091-0.22,0.155-0.327s0.143-0.202,0.238-0.286s0.208-0.149,0.339-0.196
		c0.131-0.048,0.288-0.071,0.47-0.071c0.135,0,0.244,0.012,0.327,0.036c0.083,0.024,0.149,0.044,0.196,0.06L95.213,78.603z
		 M98.319,80.376l1.964,3.094h-1.154l-1.607-2.666h-0.393v2.666h-0.964v-8.413l0.964-0.107v5.034h0.405l1.535-2.225h1.142
		L98.319,80.376z M104.578,79.686c0,0.246-0.008,0.458-0.024,0.637s-0.032,0.335-0.048,0.47h-2.916
		c0.032,0.674,0.176,1.17,0.434,1.487c0.258,0.317,0.629,0.476,1.113,0.476c0.167,0,0.317-0.02,0.452-0.06s0.252-0.087,0.351-0.143
		c0.099-0.056,0.182-0.111,0.25-0.167c0.067-0.055,0.117-0.099,0.149-0.131l0.357,0.678c-0.04,0.04-0.099,0.097-0.178,0.173
		c-0.079,0.075-0.186,0.151-0.321,0.226c-0.135,0.075-0.302,0.141-0.5,0.196c-0.198,0.055-0.432,0.083-0.702,0.083
		c-0.357,0-0.68-0.06-0.97-0.178c-0.29-0.119-0.535-0.303-0.738-0.553s-0.359-0.567-0.47-0.952
		c-0.111-0.385-0.167-0.847-0.167-1.386c0-0.508,0.058-0.946,0.173-1.315c0.115-0.369,0.272-0.672,0.47-0.91
		c0.198-0.238,0.428-0.414,0.69-0.53c0.262-0.115,0.543-0.173,0.845-0.173c0.547,0,0.976,0.173,1.285,0.518
		C104.424,78.478,104.578,78.996,104.578,79.686z M102.77,78.401c-0.341,0-0.615,0.143-0.821,0.428
		c-0.206,0.286-0.325,0.698-0.357,1.238h2.083c0.008-0.04,0.014-0.097,0.018-0.173c0.004-0.075,0.006-0.157,0.006-0.244
		c0-0.397-0.079-0.704-0.238-0.922C103.301,78.51,103.071,78.401,102.77,78.401z M108.981,83.47v-3.677
		c0-0.484-0.081-0.831-0.244-1.041c-0.163-0.21-0.411-0.315-0.744-0.315c-0.286,0-0.524,0.071-0.714,0.214s-0.341,0.282-0.452,0.416
		v4.403h-0.964v-8.413l0.964-0.107v3.392h0.024c0.032-0.048,0.081-0.111,0.149-0.19c0.067-0.079,0.161-0.159,0.28-0.238
		c0.119-0.079,0.264-0.149,0.434-0.208c0.171-0.059,0.371-0.089,0.601-0.089c0.5,0,0.896,0.163,1.19,0.488
		c0.293,0.325,0.44,0.865,0.44,1.618v3.748H108.981z M113.896,78.603c-0.024-0.016-0.075-0.036-0.155-0.06
		c-0.079-0.024-0.186-0.036-0.321-0.036c-0.301,0-0.537,0.081-0.708,0.244c-0.171,0.163-0.292,0.339-0.363,0.53v4.189h-0.964v-5.712
		h0.881v0.773h0.024c0.04-0.111,0.091-0.22,0.155-0.327s0.143-0.202,0.238-0.286s0.208-0.149,0.339-0.196
		c0.131-0.048,0.288-0.071,0.47-0.071c0.135,0,0.244,0.012,0.327,0.036c0.083,0.024,0.149,0.044,0.196,0.06L113.896,78.603z"/>
</g>
</svg>
