<?xml version="1.0" encoding="UTF-8" standalone="no"?>
<!-- Created with Inkscape (http://www.inkscape.org/) -->

<svg
   version="1.1"
   width="167.2375"
   height="124.35"
   id="svg2"
   xml:space="preserve"
   sodipodi:docname="TU.svg"
   inkscape:version="1.1 (c68e22c387, 2021-05-23)"
   xmlns:inkscape="http://www.inkscape.org/namespaces/inkscape"
   xmlns:sodipodi="http://sodipodi.sourceforge.net/DTD/sodipodi-0.dtd"
   xmlns="http://www.w3.org/2000/svg"
   xmlns:svg="http://www.w3.org/2000/svg"
   xmlns:rdf="http://www.w3.org/1999/02/22-rdf-syntax-ns#"
   xmlns:cc="http://creativecommons.org/ns#"
   xmlns:dc="http://purl.org/dc/elements/1.1/"><sodipodi:namedview
     id="namedview16"
     pagecolor="#ffffff"
     bordercolor="#666666"
     borderopacity="1.0"
     inkscape:pageshadow="2"
     inkscape:pageopacity="0.0"
     inkscape:pagecheckerboard="true"
     showgrid="false"
     inkscape:zoom="6.0554886"
     inkscape:cx="119.9738"
     inkscape:cy="59.697908"
     inkscape:window-width="1920"
     inkscape:window-height="1017"
     inkscape:window-x="-8"
     inkscape:window-y="-8"
     inkscape:window-maximized="1"
     inkscape:current-layer="g12" /><metadata
     id="metadata8"><rdf:RDF><cc:Work
         rdf:about=""><dc:format>image/svg+xml</dc:format><dc:type
           rdf:resource="http://purl.org/dc/dcmitype/StillImage" /></cc:Work></rdf:RDF></metadata><defs
     id="defs6" /><g
     transform="matrix(1.25,0,0,-1.25,0,124.35)"
     id="g10"><g
       transform="scale(0.1,0.1)"
       id="g12"><path
         d="m 954.277,0 c 79.903,0 137.323,23.7188 181.913,53.5938 41.58,27.8593 73.81,60.8322 98.54,103.3592 31.95,54.973 41.79,106.063 44.49,135.703 0.02,0.242 58.71,617.86 58.71,617.86 l -296.23,0.019 C 1041.7,910.535 954.18,0 954.277,0"
         inkscape:connector-curvature="0"
         id="path14"
         style="fill:#ffffff;fill-opacity:1;fill-rule:nonzero;stroke:none" /><path
         d="M 674.004,703.535 633.895,286.934 c -7.379,-99.7 30,-150.918 53.261,-177.911 42.485,-49.2886 120.61,-88.0386 210.832,-104.19878 2.5,26.49218 80.215,832.89878 80.215,833.04678 2.695,41.395 -9.355,77.598 -36.973,109.141 -32.207,36.785 -79.863,47.812 -99.55,47.812 L 133.391,994.746 C 80.1055,994.746 0,940.672 0,851.492 0,741.301 97.918,703.523 131.609,703.523 c 17.2,0 542.395,0.012 542.395,0.012"
         inkscape:connector-curvature="0"
         id="path16"
         style="fill:#ffffff;fill-opacity:1;fill-rule:nonzero;stroke:none" /><path
         d="m 261.555,83.7305 263.758,0.0078 53.972,560.5197 -263.765,-0.012 c 0,0 -47.141,-487.93 -53.965,-560.5155 l 0,0"
         inkscape:connector-curvature="0"
         id="path18"
         style="fill:#ffffff;fill-opacity:1;fill-rule:nonzero;stroke:none" /><path
         d="m 1145.06,412.961 c -1.6,-16.555 16.6,-25.461 33.83,-25.481 l 31.54,-0.031 c 1.87,4.555 2.99,9.719 3.61,16.137 1.68,17.586 -7.81,29.59 -35.27,29.617 -20.49,0.012 -32.38,-6.398 -33.71,-20.242 z m 86.23,-11.035 c -1.39,-14.485 -3.87,-25.453 -7.83,-36.621 l -146.94,0.125 2.15,22.136 46.94,-0.039 c 5.93,-0.007 14.08,-0.632 19.27,-1.882 l 0.04,0.418 c -12.19,5.382 -19,17.597 -17.54,32.707 2.35,24.406 20.86,37.832 51.58,37.812 35.26,-0.027 55.63,-20.527 52.33,-54.656"
         inkscape:connector-curvature="0"
         id="path20"
         style="fill:#262626;fill-opacity:1;fill-rule:nonzero;stroke:none" /><path
         d="m 1153.55,520.371 c -1.19,-12.402 7.19,-21.105 21.16,-22.988 l 4.2,43.652 c -14.32,0.43 -24.11,-7.629 -25.36,-20.664 z m 42.56,41.965 -6.29,-65.371 c 23.11,-0.649 34.3,9.273 36.33,30.379 0.96,9.922 -0.1,20.273 -3.08,29.59 l 17.28,2.871 c 3.07,-10.75 4.28,-23.586 3.05,-36.407 -3.05,-31.652 -21.13,-49.218 -56.99,-49.187 -30.55,0.027 -52,17.625 -49.14,47.41 2.83,29.375 23.26,41.57 46.42,41.555 3.28,0 8.19,-0.227 12.42,-0.84"
         inkscape:connector-curvature="0"
         id="path22"
         style="fill:#262626;fill-opacity:1;fill-rule:nonzero;stroke:none" /><path
         d="m 1170.43,640.41 c -5.86,-20.469 7.32,-30.41 37.85,-30.441 l 41.41,-0.028 -2.15,-22.136 -101.84,0.086 2.03,21.101 c 5.73,-0.008 14.69,-0.633 22.35,-2.09 l 0.04,0.411 c -13.3,4.574 -25,14.921 -21.1,34.16 l 21.41,-1.063"
         inkscape:connector-curvature="0"
         id="path24"
         style="fill:#262626;fill-opacity:1;fill-rule:nonzero;stroke:none" /><path
         d="m 1254.53,660.391 -149.59,0.125 2.13,22.129 149.59,-0.125 -2.13,-22.129"
         inkscape:connector-curvature="0"
         id="path26"
         style="fill:#262626;fill-opacity:1;fill-rule:nonzero;stroke:none" /><path
         d="m 1259.57,712.793 -101.84,0.09 2.13,22.129 101.86,-0.09 -2.15,-22.129 z m -118.81,11.27 c -0.74,-7.872 -7.3,-14.266 -15.1,-14.258 -7.57,0 -13.1,6.414 -12.36,14.289 0.74,7.652 7.52,14.051 15.1,14.051 7.58,-0.008 13.1,-6.426 12.36,-14.082"
         inkscape:connector-curvature="0"
         id="path28"
         style="fill:#262626;fill-opacity:1;fill-rule:nonzero;stroke:none" /><path
         d="m 1270.8,829.395 -65.37,0.058 c -12.7,0.012 -20.63,-3.508 -21.76,-15.293 -1.48,-15.527 13.6,-26.902 34.1,-26.926 l 48.97,-0.039 -2.13,-22.136 -101.84,0.086 2.03,21.105 c 5.53,-0.012 14.3,-0.43 19.93,-1.465 l 0.02,0.203 c -12.54,6.008 -20.36,18.43 -18.68,35.813 2.25,23.371 17.7,30.594 35.53,30.578 l 71.31,-0.063 -2.11,-21.921"
         inkscape:connector-curvature="0"
         id="path30"
         style="fill:#262626;fill-opacity:1;fill-rule:nonzero;stroke:none" /></g></g></svg>
